<mxfile host="app.diagrams.net" agent="Mozilla/5.0 (Windows NT 10.0; Win64; x64) AppleWebKit/537.36 (KHTML, like Gecko) Chrome/134.0.0.0 Safari/537.36" version="26.1.1">
  <diagram name="PÃ¡gina-1" id="NXLUAlZXB8fd5pQ65As_">
    <mxGraphModel dx="1927" dy="533" grid="1" gridSize="10" guides="1" tooltips="1" connect="1" arrows="1" fold="1" page="1" pageScale="1" pageWidth="827" pageHeight="1169" math="0" shadow="0">
      <root>
        <mxCell id="0" />
        <mxCell id="1" parent="0" />
        <mxCell id="mCAhjloM50CXQR4EmnHI-1" value="" style="shape=image;verticalLabelPosition=bottom;labelBackgroundColor=default;verticalAlign=top;aspect=fixed;imageAspect=0;image=data:image/png,iVBORw0KGgoAAAANSUhEUgAAAsAAAABkCAYAAACIPYY+AAAAAXNSR0IArs4c6QAAAARnQU1BAACxjwv8YQUAAAAJcEhZcwAADsMAAA7DAcdvqGQAAIW7SURBVHhe7Z0JXFTl9/8/A8wGCAMEoiirgitEErkkLmlSkopmGuLyU7/9zcyyVDQTN8Qls8zwq2iaRZYLpeZWkqKWYlAgqxoqkKC4oMQiAwzn/8zMhQGEuQOo1df77oXN3Z77POd8znnO3Ll3RkQMCAgICAgICAgICDwmGHH/FxAQEBAQEBAQEHgsEApgAQEBAQEBAQGBxwqhABYQEBAQEBAQEHisEApgAQEBAQEBAQGBxwqhABYQEBAQEBAQEHis0F8Aqy7juxUf42h+Fbei5aiy92PF7KWIzlRxa3SU/7YNIbM/xcm73IqHROGpCMxZuke7UHoGm+YsxI60Su1yi1EiJyUDtx+cyWqhwpV94Ziz7ji3LPBoqcT1xKM4+ts1lDNf/HlmH37J0elY9edBrHp3Nj48kseteXCoruxD+Jx1OP5whPU/St1YLD2zCXMW7tAuCDwiWM7auxzvzl2P2Jt/p3ZLcWbTHCz6JoNFcWOwmD64Cu/O/hBH8lrY18JTiJizFHsu3j/PPWyqCjNw4JM5mDRyCAb4DURA8LtY98NllHHbm4XqCvaFz8G647e5FX8H/1YfCnmoLlo/LtyRxi03lQdXBzVeAFcV4OTiYExe/BXO3n5w35SmuvYzvlj/OWL/vF/ClRcOIGL9Hvz+18NMlFUoTopGxDbOeOU5+PXwjziX/yASFXPMf0fAZ8IO5DyUIaiQd3I7InYncMsCj5LS4++iX/8xGDugEzr18cfwUfPx3dVq3ZQjPiIEYUfK4elrz617cKjyTmJ7xG4k3BW+tdAw7o/F8pxfcfjHc9oFgUdD6Sl8NHc1Yo290cP27/zA8R5S90Zgc8yVxoun8nhEhIThSLknfO1b1teq4iRER2zD8asP6sKKYShTI/HKUz0wLiIVsu6DETjqeXRRncDyl57GoCU/o5Dbr8mo8nByewR2Jzzkq1N6+Tf6UMhD91OOnF8P48dz+dxyU3lwdVCDClH+eQxrXu2Noat/Q8n/+nyrGIPPUs9i1UApt6IlEIpv3ETxw6zfBf4m2BunKldM3Por8q7EYuXI3hi1ajsW9JRoN6tykW85Cht2rMRg679zohfQcn8sKsZ8htSzq7glgUeB6s+bsBm3CVFLnkUrbt0/FVVuPixHbcCOlYPxrwzh8gSET5yFn9otwNGEw9i4ZDZmvjUPq7/+GUeXdkVK+OtYebac2/l/k3+eD4U8dD8KjPksFWdXDeSW/z7ul0jVn9g0MRAfXx+CiG1vwN2EW/+oKfwOb/YNxpqvVmL0k/YwFUth7eGPeftzWP1vAJU5OLRsDHydFJCK5bDt+hLeP9DAserz9B6MxSe5xFCVj9jVQfBtbwGJiQy2nYZg1tcZ3MdHhfjuzb4IXvMVVo5+EvamYkitPeA/bz9yVFXIi5qGCZvPQ5m5DcF9JmJrlvpsVciPXY0g3/awkJhAZtsJQ2Z9jQyDPo8qReqXM/GcuzVkEku4DZqPozfqviOpyo/F6iBftLeQwERmi05DZuFrAxqvurET0/oMw6p4XUKsTP4II/tMwRd/qqNV31i1+1fdOIEPJ/aDh50ZxMZsbDbuGPhGFDKU2u36qUTOoWUY4+sEhVQMuW1XvPT+gZq2y6/sR2igN9qai2Eit0Nn/1nYkV6q3chpY+W2xRjR9QlmGzO06/U6G3cqol7vC6dWEkis3DF0+Unc0SQe7VheXfEZFg11h5VUCoVLX0yNTKi5IsI3lsLv3sKobRVw+mM+nunaB+PeW48vvorGqeorwKprSDkZg18vVevoBk58OBH9POxgJjZmvrGB+8A3EGWYcVCa+iVmPucOa5kElm6DMP/oDZZKdTTX72oKz36KiX06wtaM2cnSET6jwxBzvTpD8+mVafKLGRio0aQ5s/tURKyZhmdHf6LZyqurgj2Y3jcI8xeOQmdrM1h7z8Vx5la9/mZeOvvpRPTpaAszCbOHow9Gh8Wgpsv30XAsFn73JnoPXlyzj95xGpB/muUDpoud0/pg2Kp41FioMhkfjeyDKV/8yRb44059BeXK/lAEereFudgEcrvO8J+1AzXmapRmHtfkeFMPUxtPXfpOQtjSYHi3qRdPejXYAHcPYHZ/P8zaf4dboaYYP8wbiP7v7NcsGeIPuhOHVS97obVcorHr4NnfQpOmGaprKTgZ8yuqQ7jxOaQKN3ZOQ59hq6CTeSWSPxqJPlO+4Jbrol/fzbBHA5T8sAGbUxwwKWw2fOu825DB680VWPnOWHhJtQ7gzd2lqfhy5nNwt5ax/rhh0PyjqDP1NCe//R0+bHSeaboPmROxPzQQ3m3NITaRw66zP2btSGcZsTH+wXmIwTvn6dUkfy6pzDmEZWN84aSQQiy3RdeX3scBTRJT57jeGLz4pGY//jqCrw5qbj5kqH8Jri4llJVxmYrYq4pf51M3uQ8tS6vUbnoAKM/MoU4SF5pxrIxbo6Pkq5FkJulHH2WriG5Fkr9MRuYuz9H8L2MpPm4/hfm3JXGbSbRP3Tm9KClxmS+ZW3rT1I1HKT7hGEVO7k5miiEUcbmcrn4ygOTO07W7as5jRxP33WMLFZSy2o8UVj3otQ2HKC7xNH27fDi5mHagaYfuqHemSH8Zycxd6Ln5X1JsfBztD/OntuI2NIl1qih5L4UFOpO4/XBaFLmXktghFSmryU9hRT1e20CH4hLp9LfLabiLKXWYdojULeqj+Nhb5C59gp599wuKPRNLUSH9yd5EROI+q7U7VKTQaj8FWfV4jTYciqPE09/S8uEuZNphGmm6qwfV1U9ogNyZpv+k84Py53fIXd6HVmeq/a1/rOrtu4LsSdZxLH1yJJ5SUtj2DwLJWaygwC9va9rThzJxGfmaW5L31I10ND6BjkVOpu5mChoScZkJ4RSFdDclyyen0PqDpykuZivN6mNLEufJtPcGpw2pmOROQ2hx9GlKPLmBRjuJycLGkZ7+zyaK+TWOouf2JoWsF608Xz0WKUlkT9CTU/5LR0+foB3zB5C92JH+b6+6r/xjuRXpTzKZObk8N5++jI2nuP1h5N9WTG0m7dNsp7JDNNVBTkM23tAs3toVRPayjjT2kyMUn5LC9v+AAp3FpAj8knitU3yM3nKX0hPPvktfxJ6h2KgQ6m9vQiIx55sW+J0FNb3X3Yw6TYykY4mp9PuRDynQUULtph6iYvVmHr0WxbzJaXI7HY87STtD/am9xIhMOs/VNM+nK9X1DTSI7W/q9Rp9eeoU7d51km4U6fd3xa/vMW10oomRxygx9Xc68mEgOUra0dRD6h43TEOxqPGh3UTNdt645Ms/zfWB6ip9MkBOztN/ohoLKX+md9zl1Gd1Jlvgizt1eIRQd1NLpuX1dPB0HMVsnUV9bCXkPHkvqcOjMZp7XHPiTW888WiwQVTX6fPhVmTF4ucWt4ru7KJX7RQUsOWaAf7Q5gCRcWvqPzeKTiQm0OE1w6m9uDVN2Ku1a9mhqeQgH0LaEDZsDtHJXEk/v+NOci4314kDvnzWHHvch5LiQrqQ2HY8fVfCrWoUvnxXTMfecifpE8/Su1/E0pnYKArpb08mIjGnUdZCc/LbI/chs0qj80xm03zI6qJTId3J1PJJmrL+IJ2Oi6Gts/qQrcSZJu+9QY2Fzz82D/FpgEeTvLlEmUjLfM3J0nsqbTwaTwnHImkya08xJIIuV2pznN1E9dzJP/fy1UHNzmuMBgpgHX97ASyVkN/aKzXiUsbOJDfZ0xSWztMfZSzNdJOS54IEJmmO4p8obNwU+vRsaeMFcFkMve4ko54rzpPuDLcoapQ1WQzbRje4AJT4raUruk6xc8no6bB0tlBByYt7kNzzffq9Qr2xjGJedyJZzxWkmRc4bkWNImuLYbSNC9KGKaLoYFuS+31ImnpUjSqXNr1gQRLO8WUxr5OTrCetqNs4jbK2oGH6GzewANYzVlU+nd2xjradqBX8ypP0dkft9lo9agAlxc50I6nnAkrQOYh+ChtHUz49S0W7XyUbeS9akaFrRZW3lYYpTGng+mxScdpQJ2PtHmV0dJojiZ2m0VH1+xiGKu9Tek7WhqYcUK/QjkX6TDjVSFmVR1sCFGTx0meUX8E/FnXSkkr8aK3OGJoxyJ4O0y7WKYBVlH92B63bdqJWACrp5NsdNfvzybcoOphs5X70oc7xlLvpBbKQaH3TEr/TvWgKsm5FfcN+p7uavlVS1o+bKGJfKlMcn17v0NejranV4AhSh6iW27TzVTsSN6UAlspoUERuja35/F0SHUTWrfpS2O93tcdUZtGPmyJoX6p20muY+rGo9aF24jEgLnnyT7N9YFABrC/HFNHuV21I3msF6cylorytw0hhOpDW6xxTj+Yex2hqvPHlBr0abJyCnWPJTjGMtl7Xtnr7q5fJ5omX6StWTfH7g7Prsx/o8qnyNM32kJHPsjTNYp3iycA5xJDiiTefNdMedblHB6a00cRhXE2HG4HPP0XRFGwrJ78Pq/3NDsndRC9YaDXAlpqd3x6pD7kc3fA8c6ZpBXDRbnrVRk69VmTU2EQ9h2wdpiDTgetr5cP6/FPzUEtilD+XaPoo9aQFOsOz8AmjcVM+pbNlaj9yBTBvHcFXB7UgrzEe/V0yIhFEqEJVQ/cWqwtytpXtokWkgGsH+5r7NIwUCrQSVaK8vKGDdVQVpCE91xJP+XYFd4cmYDYQC6K24A3fxu/1VeUlIeVaJc5vHAmvbt3QTfPXD4tPleLexTRkaj4qEUHh2gE199cbKaBoJUJlec3nKDpUeUhKuYbK8xsx0qu6vW7ot/gUSu9dRJq2wYapzEJqRhEcvH3Q3phbZ2SH3j07QntXigp5SSm4VnkeG0d61bTdrd9inCq9h4tpmbqPWJuNnrGyvviOGQ+fwmisCJmOCSMHwafLcERkqlBVVVXn4/r7qCpAWnouLJ/yRVedgzBwQRS2vPEULqecR0n7XujrWj1w9en80KeLCheS01GhXiGygJu7A7R7iGBqLodJGye0F2tWwMjUFHKRCpU1Hxsbw8WvPzrUsmVP3w4oP5+Ki1WGjUWkcEUHnTGgULSCqLIhKxvBzncMxvsUInpFCKZPGIlBPl0wPCITKtZeg9qvoRJZqRkocvCGj87xsOvdEx01jm+h32UDMGG8I35b6IO27bwwePw8fFfki9FDu8KcT6/n05GcUQqnp33RtiZzKNCrZ1dwZjcMkRWcnKy5uK7k9bfxgAkY7/gbFvq0RTuvwRg/7zsU+Y7G0K7m3N5NxNC4bDT/VD7k2NMTd5WXkXK+BO179YXOXEwffn3QRXUByema6Lif5h5XTVPijS836NOgtrkGsXoxCEPNTmDP9/msnRv4ftdPkLzA1tkYGhPMrm7ucKgJKwtYmIugLLvHrdDR3Dnkfvj1XdFMe9RFBDNTOVBexv9tDzz+qchKRUaRA7x92nP+Vh/SGz21CUi91Oz89ih9qH+e8eWWDaPycgrOl7RHr76uNTZR29GvTxeoLiSDL3wa5O/MQy2JUd5cokRBWjpyLZ+Cr87wLHwWIGrLG6gTPnz94KuDWpjXaqaxR4URC1I5SlD0V/0oqcJfhX+hUiSHqRnXLZExjGsGpaW6NtZLRSUrE0xgLDZobx1KJROMBXoEzUFISEjNX+iaSGxb8QrcNBYXsT4Z2ikllEyBFj2CMKdWeyGhaxC5bQVe0TbYCGwMbDIxMqm9jwgymbTmdEpt4wiaU6vtkFCsidyGFa+4cYWyPur5QC24Oqv0jLUqD7sn+8DnlaWITiqA1NUPk5YswmhHQyRVoZkoTYzFDZquXFXJNorr9p9pQW2KqiqVttciMcT1qy72zqleb2vBbCeX1xG8sQnbm1jCNnAsImaLuu035vgq5O2eDB+fV7A0OgkFUlf4TVqCRaMdDQq4Sq3j64xfJJNByp2uZX63wpCPzyDx8EbMDnBB8ZktmPuyL7xHb8VlFZ9etaMn9SSnedUYPLpSx7WJzna8/rYago/PJOLwxtkIcCnGmS1z8bKvN0ZvvVxzH1zTMDAu9eSflsZeXQupi4Y6BtKTY8qhNVfdM4iM1Xph7ajq2b6G5h7H0ZR4440nfRrkdmkI88EYN9waP+/Zh9xr+7DrRCsEBD0PS7bJMH+w/tbJp9U0MHZD5pB6h1Wxyq8hK/Lns2baow5idO7mDnFuGlIb+ro5VRail83Hxz9k8/uHJWcVy1R1px4ZZNUJqCX57VH6kGee0WCgD5kT2Yxsgrrhw/WF5Te+8GmYvzEPtShG+XNJhdbw4C3BePvBVwe1LK/x6vVBY9K+A5xkhUiKT6337uQvnI5LA7V1Q0czblUzMbJxhqNFATIvXGcm4KjMwJbXx2HRgWvcivsxbuMCR9MSlFr2QtD48Riv+RuHId5u8PDsYNBTpTVXr9UYt4GLoylKSi3RK6i6vfEYN8Qbbh6e6KCvQRMndHSR4lp6GgpqBqHEhYvZTBJqjNHGxRGmJaWw7BVU0/b4cUPg7eYBzw7VV9gaQV3MUTmU93QCKb9+Hbf0VzY1VF3djQ07b2Hgungk/PANNq8JxYyA1qhQf4UdSwh6MbKBs6MFCjIv1HqQqRIZW17HuEVH4MTGZXI1FanVT9SoKU1Gyh9AO2cX1J+HDUOFnPPnUcwtgb1KTb0MY1cPuF1vwVgaouoqdm/YiVsD1yE+4Qd8s3kNQmcEoHXFX+qQ1GmyQUzg1NEF0mvpSNM5HsoLF5GtcXzL/F51Ox7frNuD609NwZLIvTiTmYvktf1QfCgKB2+21q9XOw907yxHdkJ8Lb/9hfj4DO1VeTVN1hUbr15/O+Gv+G+wbs91PDVlCSL3nkFmbjLW9ivGoaiDtfpxP3VisTYtiUsNLfGBejIjlCvv6Sba8uu4bmjgsbzg4miCq6mpNQ+cqSlNTsEfaAdnl0aio7nHNQO+3KBXg3of/JKh77iRaBu3F9u37sbPT4zAuAHqyaKFubAB+OYQ9RsUKldCJ/NyXL9+q4HY5tO3C4ybbY/aGMH2hUD0k55B1Pa0enMryx9J2xC+/FMc+IN4/WPi1BEu0mtITyvQjUd5ARe1CaiF+e3R+VD/PHOgCT5Uhw+rDUyusjnjTq3tpUjWOhH6wuefmIdaFKO32vPkEilsnB1hUZCJC7X0W5mxBa+PW4QD13TreOsIvjqohXmtyZpC5QUcjtyEPQkF3IomYvE8xg59AunrJmLCim9wLP4cks4cwefvB+GdnXfQ6ZVX0bOl30hmOgBjR9gjbv18bE8rYnYsQtr2xVj++W8osrTidmoAS38EB9oi4aM3EP5TLjOzCjfj1mLS8/0xIuwUSrjdGkcEiVQCKr6LuxrvWMI/OBC2CR/hjfCfkKtkZdjNOKyd9Dz6jwjDKb0NWuHFSaNgdWwl3tp6DoWqMmR//z4W77pWE4CW/sEItE3AR2+E4ydt44hbOwnP9x+BMP2Nw0jhBCerWzi+az+y2KHKnCNYtvYwCnV1i37UVzRE5biZlYW7rEOq27/hs5lL8P1d1paS70M4UwwYOwL2cesxnyXrIib0orTtWLz8c/xWZAmbgGAMNY1B+IxIxBcwQ5Zewrchi7C7pCfGvuzBwr45EO4cCEfI7osoVZXgws7ZWLJPBP/xI9Ba0pKxNIT6SoEI5TezkKVtEL99NhNLtA3yfkRp9eIkjLI6hpVvbcW5QhXKsr/H+4t3oTpvtMjvokvYu3wGZi47hBz1U7aVfyH3z9sot3aEI4sN/XpVIGBaMNqeWoLguZ/j2OkT2LV0PIvbfBCX5ZujK/3+7gyTS3uxfMZMLDuUw2JS3eVc/Hm7HNaOjrBsNIPVj8XatCQutTTbB0YKODlZ4dbxXdivNRCOLFuLwwYHng0CgofCNCYcMyLjoTXXtwhZtBslPcfiZY/GoqO5xzUDntygX4P6pySJ7ziMdjmNNWt+QftRQejFzRUtiYkG0TuH2EDh5ASrW8exa3+W+joeco4sw9rDhQ1ePeTLZ2I+exg45xq1D8ait7shbfnLCF5zBBeL1AlDidyfP8X/jVuD852mI3SSM3/utnoRk0ZZ4djKt7D1XCFUZdn4/v3F2FVTuLQsvz0yH+qdZ6ya5EPmRAQPNUVM+AxExhew4qsUl74NwaLdJeg59mU0Hj7/0DzUohi15c0lpgPGYoR9HNbP3440psOqojRsX7wcn/9WBEurWjHOW0fw1UEtzGvcvcAN0uBDcEWf0zCpmHosTuZWNB3VrRO0MrAzKUxEaq1p/kTSNtR7+leUUX1Duvrmb3kbmnKQe8qCUZEUSt5ybwpN4u4m14Oq4BStGOpMcmMJmcrFZCR3pqGrfqE7pGr8ITiG6tZJCg9wJTMjI5LIpGQiklG7QaEUk6++mVp987ac2kw5SDW9qkiiUG85eYcmaRbvHX+b3KXGJG3VnWafVKobpJPhAeRqZkRGEhlJ2Zhl7QZRaEy+7qbvxmDHxi4ZTO1kRiSWiEls05MmBnYjU+4mfbYD3ToZTgGuZmRkJCGZ1IREsnY0KDSGNN3Vi5JSN44kV7kRmchMSWbqTAELp9OzZrUfgtMzVtVtipn/DFmbMDuZmZNMYk1e48Jpnr+CFMO38Z9fVUCnVgwlZ7kxSUzlJDaSk/PQVfSL5slVFV2PWUTPO8pJZCwjUzYumYMfvR19hTSev08bSvpltgfJe62kP6qlencrBcir/aq96d7qmRfJr41EY0sjqQP1n3eQ8tT9NGAs6gcX5G2mkE6OFZQU6k1y71DtYr2H4G7HzKdnrE2Yz83IXCYha69xFD7PnxSK4bSN3zh0K3YJDW4nIyMx66/YhnpODKRuptW+aYnfKyjzqynkqTAmY1krsmCxIbb1pRl7srQPd/DqtYRSPp9G/VwVJBWbk4NvMM0c6U7S7gs0W/l0pXkITt6OXjtS8+QJg8ffFZn01RRPUhgbk6yVBcnFYrL1nUF7smrlpQaoH4u1n77mHSdv/mm+D5SpG2mkq5yMTNhYmY2cAxbS9GfNaj0Epz/HqJ+mj1n0PDnKRcyHpqzvMnLwe5uir/DkxeYe19R4440nHg3qpZLSw59h2utBi87V7jefPxqyayot7SGn7gviNYv1v0Gg8TmEoUyljSNdSW7EtGrK/OgcQAunP0tmDT1AxadvvphsypyryqOYZYHURSFm55KSuZmEjI1bkdsLC+j7bM66BuQ71a1YWjK4HcmMxCRh8WbTcyIFdjOteQiuZfnt0flQ7zzTJB+y5esxtOh5R5KLWB4yZbWBzIH83o4mvvD5R+ahlsYoby5RUcGpFTTUWU7GElOWs41YzTWUVmkMr/Zj9UNwBtQRfHVQc/MaQ6T+R1MJ/w2U3TiPlAvXUWJkCacu3eFi1egdK82kEgWXkpCWp4JdJ2942OpuyNaPCoVZyUjNKYbUoSs83ax1D0Lwwt5lZiXi3J9VcPDsARfuioaqMAvJqTkoljqgq6cbrA1vEGX5GTiXWQLbrk/BVdHAFRJVIbKSU5FTLIVDV0+4NaHx8psXkHjhDlp19EaX1k299M7Gmn0O57LLoOjghW5tTbn1hlNZcAlJaXlQ2XWCt4dtXTtXFiAzKR35sEcnzw6waYLN6nIbm19oj0UOe5D5cTdcSL4GqasXutjLuO1qWj6W+lQVZePcuWyUKTrAq1tbNLnFsnxknMtEiW1XPOWquP/jmhb4vao4F2kpl3DXyBbuXp3RurYpGA3rtQr5qXG4ZumJJ9tXP56jxLEZnTA09S3ci32bW9dMXen1dxWKc9OQcukujGzd4dW5Nep1uQEajsXatCQuNTTXB+U3cSHxAu606gjvLq3RnA+9KgsykZSeD9h3gmcHG4NzVHOPaxr88cSnwWbRgphoGH1zSDluXkjEhTut0NG7C3hlzpPPHqg9lDdxMeUCrpUaw8atO7o4mNfLH4bkuzLkZ5xDZoktuj7livpTT4vzW2M8cB+qTd/YPNNEH6r1kJkEbfh4ooNBk9I/NQ+1PEZ5cwnT/KWkNOSp7NDJ2wMNl2CGaJG/DmpOXvtbC2ABgUeDrgC+vOVFAwongYapROJCH/T6qju2Ht2EIDcpbsd/ggnD3kPef35G4tIe3H4CAgICAgL/bO4vowUE/ucQQWRkDCOR+iv4BJqPCbxmrMQ7Tscx2V0BU3Mz2Pdeiuz+a7BlrlD8CggICAj8exCuAAsICDSRStzJSscf+RWwcO6MTq0f2IefAgICAgICjwShABYQEBAQEBAQEHisEG6BEBAQEBAQEBAQeKwQCmABAQEBAQEBAYHHCqEAFhAQEBAQEBAQeKz4ZxXApWewac5C7Ei77ydTDEeZg5SM26j+zZpHQWXaDoS+8x4++7WIW/PvQ3VlH8LnrMPx24/Sck2hFGc2zcHCHWnccn1UuLIvHHPWHeeWHwB/g5YeBKVnNmHOwh3cEh9K5KRk4IG6XXUF+8LnYN3x29yKh0jVDRxbvxr7rqi4FS2BT2MNo7qyF8vfnYv1sTcfulaa5tu/GyWSo5ZjW7zuB8ibThUKMw7gkzmTMHLIAPgNDEDwu+vww+Xm/EJjLR6lRjlU2fux4l12zmM3dDopPIWIOUux5yLT74OY/5rBPz/3/7so/uW/mLPoG2Q8Wjc+FjzoXPvPKoDLc/Dr4R9xLr+ZkxlLav8d4YMJO3IeYdFSgL0r5iDiNwV8vFpx6/59qPJOYnvEbiTc/ac+E1mOnF8P48dz+dxyfVTIO7kdEbsTuOUW8rdo6cFQnvMrDv94jlvSB3vT8N8R8JmwAzkPcpCqPJzcHoHdCXe5FQ+LKlyPfhfTvzWCu+OD+ClfPo01RClOfTQXq2ON4d3D9qEnVMN9+09Aig4uhVj/2iKcaFYNrERq5Ct4qsc4RKTK0H1wIEY93wWqE8vx0tODsOTnQm6/ZvDINFpNGU6vm4vwGILnU3Y1OqkqTkJ0xDYcv8qqpZbOf83kn5/7/01UoST5W3y6OQZXhAL4AfPgc+0/qwBWjMFnqWexamBzfheJQcW4cbP40RYsZdkodn4T27a/C69mdlvAEBQY81kqzq4ayC0/ZP4OLT0gFGM+Q+rZVdySPgjFN26i+N84SDUlsVi+8Az6hUxD5wdR/zZHY6o/cdNmHDZFLcGzj+D9r+G+/Wdg2usdvOWyE/PWpaCp9UB5QjgmzvoJ7RYcRcLhjVgyeybemrcaX/98FEu7piD89ZU4W87t/E9HdRU3rMZgY1QYBii4dfVp6fwnIPC/zEPItX9DAVyJnEPLMMbXCQqpGHLbrnjp/QPIUb/pLfwOb/YejMUntVmtKj8Wq4N80d5CAhOZLToNmYWvM6o/+irAnul9ETR/IUZ1toaZVTcMHRaMzeeVyNwWjD4TtyJL3Wb5FewPDYR3W3OITeSw6+yPWTvS2XsJfRTiuzf7InjNV1g5+knYm4ohtfaA/7z92n6ysujGzmnoM2wV4o28MSlsHoY5E5I/Gok+U77QtvDdm+gbvBLbFo9A1ydkkJi1Q6/Xv0ZGahRe7+uEVhIJrNyHYvnJO5r91egdb8EeTO8bhPkLR6GztRmsvefiOBtE+ZX9CA30RltzMUzkdujsPws70vWPTk1p6peY+Zw7rGUSWLoNwvyjN1g5VIuqfMSuDoJvewtITGSw7TQEs77OAO8Hj1U3cOLDiejnYQczsTEbhw3cB76BqAwlt4Me/6u35hzCsjG+cFJIIZbboutL7+OAVhzMJ70xePFJ7Y7Mg6lfzsRz7taQSSzhNmg+jt6oPYIq5MeuRpBve1hITCCz7YQhs5j9qweg1lrfYKz5aiVGP2kPU7EU1h7+mLc/B6qqPERNm3CflvTrkTV59lNM7NMRtmYSSCwd4TM6DDHX9VeXBXumo2/QfCwc1RnWZtbwnnvcANuzsX8xAwM1YzdHu15TEbFmGp4d/Ylmq1p7vQcv1rxW2+3spxPRp6MtzJjmLB19MDosBterqpAXNQ0TNp+HMnMbgvtMxNasm3Vjytobc5nIqm6cwIcT+8HDzgxiY2ZLG3cMfCMKNS4tTcWXM5+DuzXTuaUbBs0/ijquQDmu7A9FoHdbmItNILfrDP9ZO1Aj08Kz+HRiH3S0NYOE+dLRZzTCYq7zvPlg/f96LXYYj8L/Daz+WWZ1V77AjIEdYSWTQtHhecz78hO81ncKvvizio1jJ6b1GYZV8bqqqTL5I4zso92utlWNxqpy8eXUnvDx8an31xMTt2ax7ZzOu/Rl8b8Uwd5t6um8MbtzmxuEL++wPWr5Vptj1uCrlaPxpL0pxFJrePjPw/7qnRlae2jj3LxdL0yNWINpz47GJ6mVBtpDf39486uRPUZOGIicTetwpEl3iJXghw2bkeIwCWGzfVFnvpN54c0VK/HOWC9INeZm+fjEh5jYzwN2ZmIYs5ixcR+IN6IyUO0NPo3yarwRND54dQU+WzQU7lZSSBUu6Ds1Egk1F6c57fv4YeLS5Zj6nHdd7dem1vxXlfslpvasrz3211Mdp+pkxJdnG4cv9/PlucbQn/948jFPTuPV6gOeHxudh5jdd07rg2Gr4plnOSqT8dHIPpjyxZ/cCgYV4JewAHhYMVtYOONZpolETv8N5nxe+zRErTpE15k6dYhGU43Nc9o9mm2j5tVWXMw0pTZ6KLmWQ/09wI8SZeIy8jW3JO+pG+lofAIdi5xM3c0UNCTiMtGtSPKX2dHEffeIKlJotZ+CrHq8RhsOxVHi6W9p+XAXMu0wjQ7dYQ2prtOGQRIyMvWi1748Rad2f0Hbti+lQGcxtR++iCL3JtEdKqFTId3J1PJJmrL+IJ2Oi6Gts/qQrcSZJu+9QSptlxrgFkX6y0hm7kLPzf+SYuPjaH+YP7UVt6FJ+4rYdhVd/WQAyZ2n009l2iPYyOjnd9xJ3me1ZulWpD9JxXJyGrKYok8n0skNo8lJbEE2jk/TfzbF0K9x0TS3t4JkvVZq9ucbr+r6BhokMSJTr9foy1OnaPeuk3Sj6BSFdDclyyen0PqDpykuZivN6mNLEufJtPdG46Oj4mP0lruUnnj2Xfoi9gzFRoVQf3sTEon70OrMSrZDBaWs9iOFVQ96bcMhiks8Td8uH04uph1omsb4jXNrVxDZyzrS2E+OUHxKCsXt/0DjE0Xgl3Sbbdfrf2UiLfM1J0vvqbTxaDwlHIukyd3NSDEkgi5Xan1iN3Gf5jzFx94id+kT9Oy7X1DsmViKCulP9iYiEnP2r0hZTX4KK+rx2gY6FJdIp79dTsNdTKnDtENMFwyN1mRk7vIczf8yluLj9lOYf1sSt5lE+4qKKHlvWF0t8emx4ld6j/W108RIOpaYSr8f+ZACHSXUbuohKlafr0FUdH3DIJIYmZLXa1/SqVO7adfJPF7bF8W8yY19Ox2PO0k7Q/2pPdOGSee5mu1q7cnsJmpeV/z6HrNvJ5oYeYwSU3+nIx8GkqOkHU09VExFyXspLNCZxO2H06LIvZR0u35M7aKTN27QriB7knUcS58ciaeUFBYLHwSSs1hBgV+qPVpMx95yJ+kTz9K7X8TSmdgoCulvTyYiMfVZnanpQ8mpEOpuaklPTllPB0/HUczWWdTHVkLOk/fSDVUF/fpedzLrNJEijyVS6u9H6MNAR5K0m0qsi42jukoRg1uRyxvHqCYEi4/T2x5Ssu45k7YdP0PHP2fncTAjmUSra9XVT2iA3Jmm64KWlD+/Q+7yat3X1thflLz/M4qMjOT+/kuhwxxJbOZNISf+4tW5Prs3Dl/eqetbzWuZObk8N5++jI1nfQgj/7ZiajNJGyNMKPQmF+fbj8fRyZ2h5N+e+dekM82NUxpsj8b7Y2B+vfMVjbJqTcHfasdgEMo4CukiJtvx37Gz8HBrFwXZy6jj2E/oSHwKpbBY/kCta0UgaSTKq9FbPBpvHE2el8joCZaD/3v0NJ3YMZ8G2IvJ8f/2anSgX/tqGdfyQe35769k2v9ZtfbY339DaZijmMy8Q4jJj1d/jcKX+/nyXGPw5D++fMyX0/i0+kDnR33zUPlV+mSAnJyn/6TLO8qf6R13OaclLqeLjMnKZzptjjlDJ9WaaC0m56kHqKDBnH+Df75qEP46RKupxuY5tr2kmTZqdm3FxUwTaqOHk2u1POICWEmxM91I6rmAEpTcKhYeP4WNoymfnq2TAMpiXicnWU9acV6diDluRdEoawsatu0G8716spaSbFAE5VZbuyKZFveQk+f7v7MSjlG0m161kVOvFRlU04oqj7YOU5DpwPWU3aiX1IlfShK/tXSleh9lLM10k9HTYelswcACmJt4NZQdpWksgTlNO0osvTFUlPfpcyRrM0WzxDdeTYBLZTQoIrdGXEW7XyUbeS9akaE7RpW3lYYpTGng+uxGRVgUHUy2cj/6sLpvbM/cTS+QRXV/y2LodScZ9VxxXmc3ZpOoUdZkMWwbMes3goryz+6gddtOaJK7FiWdfLsjyZ4Oo/RK/f5Xxs4kN6knLdBtpOKfwmjclE/pbFnt4qSIooNtSe73IemGkEubXrAgicb+ZRTzuhPJeq6guuYcRdYWw0gtH43WpBLyW3ulxk6a88ueprB0dlA9LfHq8V40BVm3or5hv9NdTYOVlPXjJorYl8p62xjaZCiVDaKIahHz2v4OfT3amloNjqil39u081U7EjdQAN+LDiLrVn0p7Pe72nFWZtGPmyJoX6q6VxWUvLgHyT3fp9/Vg2woplT5dHbHOtp2olZSU56ktztqY6GyKJqCbeXk92FmTX9VuZvoBQsJNyEU0e5XbUjeawXpZMq0v3UYKUwH0vrsEooOYuPpG0a/aw3HuvgjbYrYR5ouNkZJNI2zMaUXNt/iVjCtfDuebGUsHmp8pKLs/w6hVs0qgGujohtH3iYvi3Y0cmsmsxqfzvns3hh8eaeub7U5xo/W6nbWxJe6D2rufD2a9WEwRdRKdLd3vkp24qYUwHr6Y2h+rUyjZT4y8ph9mvXQQO4doCltxNR5bhzvMar8s7Rj3TY6UWvCVp58mzpWxzKfRvk0zq1qCI0PpM9QeFpNy5S3JYAUFi/RZ/mFPNpXNV4A10Z1g4687UUW7UbS1kxNoPLqrzH4cj9vnmsMvfmPLx/z5zSDCuAHND/qnYdKDSuApbJn6YML9WzM3pB9cbuBnG/IfNUgBhbAeua55tqo+bWVuktNqY0eVq7V8mhvgagqQFp6Liyf8kVXCbcOZhi4IApb3vDlltWokJeUgmuV57FxpBe6deum/eu3GKdK7+FiWib38YMIVk5OsG5kFJWXU3C+pD169XVFzS2CRnbw69MFqgvJSK/g1jWICArXDrCvbttIAUUrESrLdR/B8CGycIO7A3dmkSnM5SZo49QeYs0KI5iayiFSqe+MM3C8Iis4OVlz961U4nLKeZS074W+rrobII3s/NCniwoXktPR8PAqkZWagSIHb/i0rz7OCHa9e6KjiXZJlZeElGuVOL9xJLyq+9KtHxafKsW9i2nIbNQErB3fMRjvU4joFSGYPmEkBvl0wfCITKiqqlCl0ud/HxSkpSPX8in46jbCbOACRG15A761b4urzEJqRhEcvH2gG4IdevfsCM0QVHlISrmGyvMbMdKruv/d0G/xKZTeu4i06gGIFHDtYM/ZkzWhUKCVqBLl5XU+v2cY4B/ZAEwY74jfFvqgbTsvDB4/D98V+WL00K7QfUDfMCIrJzhxIua1fekfSM4ohdPTvmhbo3sFevXsyumqLrIBEzDe8Tcs9GmLdl6DMX7edyjyHY2hXRvrVb2YYnb1HTMePoXRWBEyHRNGDoJPl+GIyFShivm0IisVGUUO8PZpXxNjRna90bNaTJWXkXK+BO179YVOpkwnfn3QRXUByenGGDBhPBx/Wwiftu3gNXg85n1XBN/RQ9FoFxlVt3JwtdgC9vZm3BoVstPO4y/7p/CMs07XDn7PohPXleZSeu5jBE34HNK3vsbW/3NjGuPROZNP0+1eTdPyjkjhig66naFQtIKoUr1vJf5IzkCp09Pw1QkFil490bUhoTRK4/0xOL8aO8DBHriWncN6ZSAiM7D0iPIy/o/ejex8MWa8DwqjVyBk+gSMHOSDLsMjkKlivmDOqOTTKI/G62eD+hi7+KF/B53m7Hr6okP5eaSm/8Gjfb0TEEcpzn0chAmfS/HW11vxf27qPvPrr2H4cr+h824D6Mt/fPn4fHqTclqjPJD5scrweUgPxk490adWHrJ75mm4lWUg5aLWgrVzvsHzVXNpdJ6raKaN1Gm9JbUV65LBtRG/1pufa9WtP1IqUKkCTIzFLK3qR6lkTrfogaA5IQgJqf4LxZrIbVjxinoSUiOCsbFJ422Vq1gYmEBcZwJkx5iwFcx4Kr2ZTd22ThQa6p+o3vHqZFt7lUgsvi+ARaJ6bXIYNF52rLGJrhPlaoGYiDlbcLB9tMNTNZq4K1XMCUYmdY4TyWSQVjetVLJEZ4EeQXNq9SUEoWsisW3FK9Dk4AapQt7uyfDxeQVLo5NQIHWF36QlWDTakROafv9XaDdC3KhDq6mEdgh1RgCZTMq1q4TWnEGYU6v/IaFrELltBV6pHoDanjwurobfP1YY8vEZJB7eiNkBLig+swVzX/aF9+ituMz6qg8R60SNWw20PamDX/tSP1ZD8PGZRBzeOBsBLsU4s2UuXvb1xuitl9l01xD1YqoqD7sn+8DnlaWITiqA1NUPk5YswmhHLnUwn6mYd+u6QgZZjZjKoZVpXdGI2DlM2AiqWBBaDfkYZxIPY+PsALgUn8GWuS/D13s0tuoxHFUwLYnEkNScRw1BxDpiXGuVyNQU8tq73B+00Pdj8FV/7sb0l0NxadAG7Fr0LCy1a3l0zmiy3asxIO/UQq2dunvX25nURSD3ukH47KGnPwbnVzHTgwkqKysazUn3Ie6Mbu5i5Kal4mYD/VdlRWPZ/I/xQzYrUvN2Y7KPD15ZGo2kAilc/SZhyaLRqJYor0b5NM6DSCaHvPauTNvGbKRVVfza108V/tw9HS+HXsKgDbuw6Fmt+gzSXyPw5X7D5t2G0Jf/+PKxVl/8OY1Hqw9ofjRkHqp7LOt3/SQilkBc2xnspOrF6t3q5HxD56vGqHfq+nWIxi6NhnDzbNSy2ortaXBt9DBz7aMugI1s4OxogYLMC7VuUK5ExpbXMW7RAW5ZjTHauDjCtKQUlr2CMH78eO3fuCHwdvOAZ4fqd3n1EdU4Vo2JkwscTa4iNfVOrcAqRXLKH0A7Z7jU90ATUE8KVK7EvRpHl+P69Vs8AdwYzRmvCZzYMSZXU5F6p9ZZS5OhHZ7LfQLTwo7r6ALptXSkFeiOU164iGwWC2qM2zC7mZag1LIXgqr7Mn4chni7wcOzQ6NX3FF1Fbs37MStgesQn/ADvtm8BqEzAtC64i91ikCVXv8fgo2zIywKMnGh1t3rlRlb8Pq4RThwrdYYTZzQ0UWKa+lp0A1BiQsXs1lrDOM2cHE0RUmpJXoFVfd/PMYN8Yabhyc6NDqA2tTWEr9/cDse36zbg+tPTcGSyL04k5mL5LX9UHwoCgcNuhtfC6/tJR3RvbMc2QnxtWz4F+LjMxp4t17FuvUN1u25jqemLEHk3jPIzE3G2n7FOBR1UHO8SE+SV1N1dTc27LyFgevikfDDN9i8JhQzAlqj4i92MEt0Jk4d4SK9hvS0Ap32lRdwsVpMzFcujia4mpqKujJNwR9oB2cn1vdv1mHP9acwZUkk9p7JRG7yWvQrPoSog9e5ve/H2PoJpsMi3LlTneKM0d6jA0zVur6lO1HZ+Qu6NyDqYpHKodQFLcqvX0et3etS+DMWj34N+9vMxzeRr8KpOj/z6dwAuz98TNCxe2fIsxMQX+uEf8XHI6NaKE21Rz0Mzq9VhSi4WwkrG5u6E60+jGzxQmA/SM9EYXsaqw7qoETStnAs//QA/mAF/tXdG7Dz1kCsi0/AD99sxprQGQhoXQFOorwa5dM4H6qc8zhf62veipnWLxu7wqOzq37t80xAhT8vxujX9qPN/G8Q+aoTUzgHr/4agy/3N3feZV3Sl/9uttafj+08+HNak7Xa3PnRiGceUr8hJJQr7+mKw/LruF6vI6rci/ijliaKUlKQZeIC94aK2RbMVy2rQ5proybEfkt5yLnWkErgAWKKAWNHwD5uPeZvT0MRSy5FaduxePnn+K2o+t2tFkv/YATaJuCjN8LxU66SKeom4tZOwvP9RyDsVAm3Vz1EEkglhOK7d7WFkE0AgoeaIiZ8BiLjC9i6Ulz6NgSLdpeg59iX4dHQGw6DMILCyQlWt45j1/4s9fs35BxZhrWHCxt/x8RDc8ZrExCMoaYxCJ8RifgCNuLSS/g2ZBF2l/TE2Jc9dAmzHlYvTsIoq2NY+dZWnCtUoSz7e7y/eBdqakxLfwQH2iLhozcQ/lMuG50KN+PWYtLz/TEi7BQasT5D/Y5QhPKbWci6yxpT3cZvn83Eku/vsiyrRBmP/00HjMUI+zisn78daUVM2kVp2L54OT7/rQiWVrWlaoUXJ42C1bGVeGvrORSqypD9/ftYvOsaF4yW8A8OhG3CR3gj/CdozRmHtZOeR/8RYWhMPnWopyU+/xiJLmHv8hmYuewQctQPp1b+hdw/b6Pc2hGOlk0IM17bKxAwLRhtTy1B8NzPcez0CexaOh7v7MwH3VfNGkF0aS+Wz5iJZYdyWFvqbuXiz9vlsHZ0hKWRCBKpBFR8F6w+aRj11QFROW5mZUHr0t/w2cwl0Lq0TC0mTBplhWMr38LWc4VQlWXj+/cXY1eNmGwQEDwUpjHhmBEZD61Mv0XIot0o6TkWL3c2waW9yzFj5jIc0hoOf+X+idvl1nB0rJsT6tDKk03ISmSmX9LGunqV/0SMtjuFD97ajMS7KihzDmHx4p3I4wpgI4UTnKxu4fiu/chip1LmHMGytYdR2FDQVl7A5oljsTq3PxYtGw6zrDSkpWn/MnJKeHTOZ3ftKR42ioBpCG57CkuC5+LzY6dxYtdSjH9nJ/JJ++auSfZoCEPza0U60jON0cnLUzOhVl44jMhNe5BQqwi7HyO0D16Et7ulYfnLwVhz5CLLF2y1Mhc/f/p/GLfmPDpND8UkZ2PNFVZR+U1kZd1l8a/C7d8+w8wl3+Mus7xaorwa5dM4D3TnAMJDduNiqQolF3Zi9pJ9EPmPx4jWtvq1r2cCqrywGRPHrkZu/0VYNtwMWZz20tIykHPXiEd/jcOX+5s17zL05z8rnnzMn9Oao9Xmzo965yEbazg5WeHW8V3Yr+0Ijixbi8P1OkJ3D2LFe3uRVVaF4vQovLPkAMQvjsewJxoK/ubOVy2vQ5pro4dXW9WHr6ZoYa7l7gV+dKgK6NSKoeQsNyaJqZzERnJyHrqKflE/6ljnIQAV3ToZTgGuZmRkJCGZ1IREsnY0KDSG8tV3Omse2JFTu9eO6G5Gp3t0/G13khpLqVX32XRSqd4thhY970hykTHJTKVkInMgv7ej6YrmKbnGUD/8Iac2Uw5yN2UzKpIo1FtO3qFJ2mVlKm0c6UpyIxPWroxMnQNo4fRnyazWQ3DyNlPoYHUDyl9otoeceq38o+am8btbA0jOPdDCN17NTf7ydvTaEd1o1cdcj1lEzzvKSWTM+sCOkTn40dvRV7QPATYKO1fsEhrcTkZGYgmJxTbUc2IgdTPV3ZiuunWSwgNcyczIiCQyZjeRjNoNCqUYjfEbQ0W3Y+bTM9YmZCQxI3OZhKy9xlH4PH9SKIbTNs1A9PifHV9wagUNdZaTscSU5GIjkjsPpVVacdR9QEl1i2KXDKZ2MiMSS8QktulJEwO7kWn1zf9s+8nwAHI1M2J9kZHURESydoMoNCafnYWh1pq8DU2pcZDaxaHkLfem0CS19epriUePzOKZX00hT4UxGctakYWc9cnWl2bsydLzEI32gQh5u9eotlv5bV9CKZ9Po36uCpKKzcnBN5hmjmR97b5As7X2g1JUkUlfTfEkhTHTfysLZlMx2frOoD1Z2l7dO/42uUuNSdqqO82Ozbk/plS3KWb+M2RtwvpiZk4yiTV5jQunef4KUgzfptXmrVhaMrgdyYzEJGHt2/ScSIHdTLmHQtRtXKeYRc+To1zEbGPKfCEjB7+3KZoLworMr2iKp4KMmYZbWTBNiG3Jd8Ye4rrYCEo6PbsTmQ/8pM4DF3dOr6YAZ62uJUzXTwf0JQdZta6VlLpxJLnKjVgeMGVx60wBC6fTs2bV23UaU+V9Ss+x9wbqFFn/TxqwhV/nPHZvGP68U9u39+UYpsGkUG+Se4dyy0wpKZ/TtH6upJCKydzBl4JnjmT+7k4LEtS2N8Qe+vtjSH6tSFxIXq38aA2XW4o+H8Z024MWJ+vPUmpUeTG0LLALKcRMO1JzMpOw+GrlRi8s+J6yOVOqbsfQ/GesyYTFpZm5jCTWXjQufB75KxQ0fJs23vVq1ACNN4bGH1bP0It+bVi7LJcaScmh/zw6mMcdxKP9hh+CK9E8BCRpQHuAlAK2FvDrr1H4cj9fnmsMnvzHl495chqfVh/0/Nj4PMR6krqRRrrKyYj50pT1xTlgIU1/1qzOQ3CmHYfRxAFtSCqTMU2Iyd7vPTpyTT3ShnM+v30agacO0WhK7zzXXBuxI5tVWzWQt/TWRgbUFM3KtVpE6n9YYD1yKgsuISktDyq7TvD2sIXudvN6qAqRlZyKnGIpHLp6ws260T21VBUhK/Ec/qxygGcPF+4dQCUKMpOQng/Yd/JEBxueNgymHDcvJOLCnVbo6N0FrR/E95c3dbxqKguQmZSOfNijk2cHGDy8snxknMtEiW1XPOWqYO+l6qNCYVYyUnOKIXXoCk8368b9VIuqomycO5eNMkUHeHVrC1NufW30+p+N51JSGvJUdujk7QFbPScty8/AucwS2HZ9Cq6KBkZQmIXk1BwUSx3Q1dMNhpizhoa0xOOfquJcpKVcwl0jW7h7dUZrGbehyTRm+yrkp8bhmqUnnmxffZO/EsdmdMLQ1LdwL/Ztbl1tqlCcm4aUS3dhZOsOr86toetWFYqyEnHuzyo4ePaAS4Nvmdk+2edwLrsMig5e6Na2IY+WIT/jHDJLbNH1KVc04Arm1kwkaYMQnh1s6vq8qhi5aSm4dNcItu5e6GyA4VQXP8KgPvsxLC4Gs7j7CDWU38D5xD9QbNcN3fKWwmvwWUxNOYE53D7lNy8g8cIdtOrojS4tCFp+neuz+8OnKj8Vcdcs4flk+5oHMZXHZqDT0FS8deEY3ubucW25PfTl13L8Ot8HgZfnI/HrV2HXkLwMQHnzIlIuXEOpsQ3cuneBg3m9hlisZp87h+wyBTp4dUODEtWrUUM0fj+3N7+A9oscsCfzY3S7kIxrUld4dbG/z896td9MDMmzjcKX+5szDzH48l/D+djwnNYsrTZ3ftQ3D5XfxIXEC7jTqiO8u7RGgz1hOS07MQm5Ylc86WmYf5o3Xz2AOqS5NnpotVVdHlqu1ZTBAgIC/xIq6Pf3vUjqEkxfZaq/IbWSbv26ll60l9GTCxO0uzw2/EVHprlTt3d/1l2hrEfdr/V6vKj4/X3ykrpQ8FeZmu/Srbz1K6190Z5kTy4kzQXgR8HtaBrv5kuLa32l1P8S91+FF2g6Qk4T+Hto5vtxAQGBvwcTeM1YiXecjmOyuwKm5maw770U2f3XYMvcHtw+jwutMDhsLZ49sQJbL1U/6VYPkRGMjY14H/b7X8TEawZWvuOE45PdoTA1h5l9byzN7o81W+aih8FPo7UEJeLXfYyscZ9gTo+Hc2Xo70ak1peR6LHU14NDyGkCfw9/2y0QAgICLaESd7LS8Ud+BSycO6NT6yZ9ACrwGFF5Jwvpf+SjwsIZnTu1btpH5QICjwwhpwk8WoQCWEBAQEBAQEBA4LFCuAVCQEBAQEBAQEDgsUIogAUEBAQEBAQEBB4rhAJYQEBAQEBAQEDgseLfVQCXnsGmOYvwTUb1bz81hAp/HlyFd2d/iCN53M/bNJPCUxGYs3QPt/QvQZmDlIzb0IxcY6+F2JGmz14CDxPVlb1Y/u5crI+9qfWJgA7VFewLn4N1x29zK5rHPzNOS3Fm0xws3JHGLT/utNQeKlzZF445645zy48RhacQMWcp9lxUf9NJIU5FzMHSPRe12x40VYXIOPAJ5kwaiSED/DAwIBjvrvsBl/l/EE8Pj7HvWoQ2ZhZ9kwFhBn84/LsK4Hup2BuxGTFX9MihPB4RIWE4Uu4JX/uWDK8KxUnRiNj2LwpaVlD8d4QPJuzI0RZb5Tn49fCPOJffyFdECTxkSnHqo7lYHWsM7x62wsct9VHl4eT2COxOuMutaA7/1DgtR86vh/HjuXxu+XGnpfZQIe/kdkTsTuCWHx+qipMQHbENx6+yea+qGEnREdh2/Cq39QGiTEXkK0+hx7gIpMq6Y3DgKDzfRYUTy1/C04OW4OdCbr8m8/j6rmXcQ+reCGyOuSIUwA+J/7k5WZWbD8tRG7Bj5WBYP24VBxXjxs1i3ZVGxRh8lnoWqwY2/9euBFqA6k/ctBmHTVFL8Gwrbp3AY4ICYz5LxdlVA7nlxx3BHv9sypEQPhGzfmqHBUcTcHjjEsye+Rbmrf4aPx9diq4p4Xh95Vm2l4DA/w6PtkS8ewCz+/th1v473Ao1xfhh3kD0f2e/ZqkqPxarg3zR3kICE5ktOg2Zha8zan/+QrgTtwove7WGXCKFtcdgzP42i73H1KK6loKTMb/iUnWkVubg0LIx8HVSQCqWw7brS3j/QA7bvwo3dk5Dn2GrEF8T1ZVI/mgk+kz5gluuS/mV/QgN9EZbczFM5Hbo7D8LO9JLua2FOPvpRPTpaAsziQSWjj4YHRaD60393LvkGN4f1BuTt3NXcTWU4+yKAPR9fSe33ABVeYiaNgGbzyuRuS0YfSZuRVbBd3iz92AsPskNsCofsauD4NveAhITGWw7DcGsrzOgtW4hvnuzL4LXfIWVo5+EvakYUmsP+M/bj5yaC8hVyI9djSDf9rCQmEBm2wlDZn2NOu5pEANsXcj62jcYa75aidFP2sNUrPatP+btV/tKi37781B+BftDA+Hd1hxiEznsOvtj1o508B/N2WXlNiwe0RVPyCQwa9cLrzO7pUa9jr5OrSCRWMF96HKcvMN5rOoGTnw4Ef269MWksKUI9m4D94FvICpDqd1eeBafTuyDjrZm7FhLOPqMRljM9Vr+bgxtX15d8RkWDXWHlVQKhUtfTI1MYFu0VN04gQ8n9oOHnRnExsxHNu4Y+EYUqk+N0lR8MWMg3K1lkJi3Q6+pEVgz7VmM/iSV26EcV/aHItC7LczFJpDbdYb/rB3Qyby5fWewc3858zntuS3dMGj+Udyo/SWMevVpINW297CDmdiY5RCburZvVpzy2b0Ae6b3RdD8hRjV2Rpm1t6Ye/waO6Y3Bi8+qdmj8Ls30Td4JbYtHoGuT7DxmzHbv85iJzUKr/d1QivWFyv3oVh+ksuND2Uc/PooPPspJvbpCFszCfORI3xGhyGmplEebTAqcw5h2RhfOCmkEMtt0fWl93FAk0DUNtTZg398pUj9ciaec7eGjOnMbdB8HK0tlodkn8bnCzX6x6/18Rp8tXI0nrQ3hVhqDQ//edivS6CNwj/vNQKvHQyk5Ads2JwCh0lhmO1b9926zOtNrFj5DsZ6SaFp9aH7rhE0c8SrWPHZIgx1t4JUqoBL36mITKjJfrhx4kNM7OcBOzMxjFkOsXEfiDeiMrT9VsOX/5o7T/DkxWb7l0F34rDqZS+0lks0c/Lg2d8ii5MUb77Xq+dmzue8flCbUd9c3VC+bMTCTCs7p/XBsFXxujdflcn4aGQfTPniT7ZgSN2iB/X3AD8yVNfp8+FWZBX4Jd3iVtGdXfSqnYICtlwjqkih1X4KsurxGm04FEeJp7+l5cNdyLTDNDp0h+17K5L8pSIybt2f5kadoMSEw7RmeHsSt55Ae4u0zZUdmkoO8iG08YZ6SUmJy3zJ3NKbpm48SvEJxyhycncyUwyhiMvldPWTASR3nk4/lWkOZSjp53fcSd5nNXutqtmuoeQUhXQ3Jcsnp9D6g6cpLmYrzepjSxLnybT3hooqfn2Pupt1oomRxygx9Xc68mEgOUra0dRDxdrjDaaAdo55guS9V9H56l9vLTtOb7qZ04CPL3MrGqKIkveGUaCzmNoPX0SRe5PojtpeMjuauE/9O50VlLLajxRWPei1DYcoLvE0fbt8OLmYdqBpWuNSpL+MZOYu9Nz8Lyk2Po72h/lTW3EbmrRPa9yKlNXkp7CiHq9toENxiXT62+U03MWUOkw7ROoWGkdny4ZtzdD0VUbmLs/R/C9jKT5uP4X5tyVxm0mkOT2P/fVTQqdCupOp5ZM0Zf1BOh0XQ1tn9SFbiTNN3nuD9U4fartISSx3oiGLo+l04knaMNqJxBY25Pj0f2hTzK8UFz2Xeitk1Gvlee0Ru4LIXtaRxn5yhOJTUihu/wcavyiY7m8zP/z6HtNgp4kUeSyRUn8/Qh8GOpKk3VTil4q2LxLZE/TklP/S0dMnaMf8AWQvdqT/23tbs31XkD3JOo6lT47EU0oK8+EHgeQsVlDgl+rtRRTzpjtJn3iW3t1+nOJO7qRQ//YkMTKhznPjNGcoORVC3U0tWfvr6eDpOIrZOov62ErIefJeuqFqSd+L6dhb3Lm/iKUzsVEU0t+eTERi6rM6k23n02dj1I1T/bZnZ2lWnPLYneW1DYMkZGTqRa99eYpO7d5FJ2/c0MST3cR92hYi/YlNQOQ0ZDFFn06kkxtGk5PYgmwcn6b/bIqhX+OiaW5vBcl6rdTu/5DGoVcfFb/Se93NqNPESDqWmEq/H/mQAh0l1G7qIeY9Pm2wHZSJtMzXnCy9p9LGo/GUcCySJrP2FEMi6HKlNr/U2INnfMXH3iJ36RP07LtfUOyZWIoK6U/2JiISc/ni4dhH33xRyTt+tY9lMnNyeW4+fRkbz/oURv5txdRmknbMjcIz76mufkID5M40XZ08VVfpkwFycp7+k+ZQPjsYijIuhLqIbWn8d+qfItbPw/Zdo2jmfwnJnmB5/L9H6fSJHTR/gD2JHf+PtOlvFwXZy6jj2E/oSHwKpbA55INAZxIrAkmT/njzX3PnCZ68yFfXNIo274iMW1P/uVF0IjGBDq8ZTu3FrWmCpuDhy/f69dzs+ZzPD3xzdYP5shHr1tK7rnT4md5xl3Pzhjav6Ktb9PFoC2BGwc6xZKcYRluvawd8+6uXyeaJl+krVhGXxbxOTrKetKKm8mPciqJR1hY0bBuraDnDP/tBJlXvoTw9mzxkPrQsTbumTgGsjKWZblLyXJDApMBR/BOFjZtCn54tbVIBXLT7VbKR96IVGbq+qfK20jCFKQ1cn00l0UFk3aovhf1+VxsolVn046YI2pfK74T6/LV3IrWR9qDFydof7C/5cRo5WfrTxquNh6CGimRa3ENOnu//zkKSUbsALouh151k1HPF+RrbqcUTNcqaLIZtoxtcsEn81tKV6tNo7Cejp8PS2UIZxbzuRLKeK3SFOeNW1CiythhGavc0joEFMPOt39orNYlGGTuT3GRPU1h6Ja/99VqmaDe9aiOnXisydGNX5dHWYQoyHbiesvUezNmF9TOTO7js6DRyFDvRtKPqNxYM1tanz8mozZQD6gXKP7uD1m07oS0KNCjp5NsdSfZ0GKVX3qPoIGtq1TeMfr+r3aEy60faFLGP+KWi7Yv0mXDi5K4595YABVm89BnlV+TT2R3raNuJWslaeZLe7qj1YeWdr2m0dSsaHFHLXrd3sjegYm4CKKLdr9qQvNcK0plZRXlbh5HCdCCtzy5pft+LoinYVk5+H+piV5W7iV6wkGgTGa8+G6N2nPLZnuhes+KUz+7qhC4l2aAIyq05rzYx1ymAJX1otU5ENM1RTE7TjpJWRczOnz5HsjZTNK8fyjhUPPq4F01BTB99w34nrXsrKevHTRSxL5Upg08bKm28Sj1pQUJNtmXpNozGTfmUzpbVtgff+IooOtiW5H4f1sQcEwttesFCE4cPzT5654tbvOPX+tiP1uoSKMXOdNP0SR98817jBTC/HQzl3oEp1EbcmebG6XzXMA/fd42imSOk9Ex4mi6H5G2hAIUFvfRZPlXkn6Ud67bRCV3DTN5vU0duDiG+/NfseUJ/TuetaxqFm3ue/UBnS+Vpmu0hI59laaxvPPGsV8+FzZ/PefxQyDdXawrg+vmyEQwqgPXVLfp55HfJWr0YhKFmJ7Dn+3xUVd3A97t+guQFts5GhbykFFyrPI+NI73QrVs37V+/xThVeg8X0zK1l8BFCri5O8BY0xpgZGEBc5ESZffu/0G7qoI0pOda4infrqj5JXqzgVgQtQVv+DblvthKXE45j5L2vdDXtfrM7Nx2fujTRYULyekwHjAB4x1/w0KftmjnNRjj532HIt/RGNrVnNvbcFoNHosAuxTs+TqRnbkEsTsP4K/+YzCiTfPdpcpLQsq1SpzfOBJe1bbt1g+LT5Xi3sU0ZGqNC4VrB9Q8O2ikgKKVCJXlbKMqD0kp11B5fiNGelUf3w39Fp9C6b2LSNM20DKYb1072Nfcl2OkUKCVqBLl5RW89q/g1jVE5eUUnC9pj159XWt0ww6GX58uUF1IRrq+gzWIYOHmDgfuYJGpOeQmbeDUXqxdYWQKU7kIqkr1Zy5GsPMdg/E+hYheEYLpE0ZikE8XDI/IhKqqClUkw4AJ4+H420L4tG0Hr8HjMe+7IviOHgrDpGIMF7/+6FATAHbo6dsB5edTcbHKDr5jxsOnMBorQqZjwshB8OkyHBGZKhZrVaj4IxkZpU542ret7t4nRS/07MqNo/IyUs6XoH2vvtCZmY3Hrw+6qC4gOd242X2vzEpFRpEDvH3a62LXrjd6djTRvDZMn3zw2R6QNTtO9dhd84SKCFZOTnqfOxBZuMFdJyKYy03Qxqk9tNY3gqmpHCKVurGHNA7WZ336INkATBjviN8W+qBtOy8MHj8P3xX5YvTQrjDn1YYSBWnpyLV8Cr5da7ItS7cLELXlDdRNtzzjq8hCakYRHLx90L6WvXv37AitWh6OffTOF0/l8oxfm0RECld00CVQKBStIKrUJ14D570G4beDoYjMTCFnZyrj/VT+4ftOL8Yu8OvfoVYO6QnfDuU4n3oRVXa+GDPeB4XRKxAyfQJGDvJBl+ERyFSxdlnDlTz5r/nzhL6c3hL/qmFzcq25hxU8sDAXQVl2T9M3ffGs0qfnHrdbNp836od0/GHQXM2fLw1HT93CwwM5fZMwH4xxw63x8559yL22D7tOtEJA0POwZJuUStZhix4ImhOCkJDqv1CsidyGFa+4aQNIZAwTbSTVpaHAqahk6cUExmIRt6IB6h2nDpSGmipXT0wmYi6IObi+VFWpQFZD8PGZRBzeOBsBLsU4s2UuXvb1xuitl2vuYTUY0wEIGtEeF6O/QVxBDHYdVmLw2GFo3RJvKZUs0CzQI2hOLduGIHRNJLateAVuWuPC2FgnWg01plNC654gzKl1fEjoGkRuW4FXtA3oh8/WzJ6NnZ7X/tyqBilXsTcSJhDXPRjG2oOh0nuwGhHEYq5IrEGkPn0DVCFv92T4+LyCpdFJKJC6wm/SEiwa7VgTbFZDPsaZxMPYODsALsVnsGXuy/D1Ho2tlw1RiggyubxO4BqbsI6QOsnnYfdkH/i8shTRSQWQuvph0pJFGO1Ye29i+zV2I2Q5K+LVZq7rS5GxCbMea58Zqtl9Z28OVKzXdWJXJINMynnYIH3ywW97NoBmxqkeu2uW1LFjwv5tHBHT0H0qalBED2kcvPqwwpCPzyDx8EbMDnBB8ZktmPuyL7xHb8VlFb82KtRvAJlN9KVbLXzjY3mbNWVUVyyQyaScfR+SffTOF/zj1y6zHKZ5VQ2vMQyb9xrEADsYiLhzN7iLc5GW2tDXNaqQFb0M8z/+AdmsmHzovtMHyxlyee092RygCUPmg7zdmOzjg1eWRiOpQApXv0lYsmg06qQ/ffmvBfOEvrzYfP+q4c5/H6wzfPGsV88tnM/1+MGwuZo/X9amrumZr6n2GnVb9fKogQ0bpLkHiwx9x41E27i92L51N35+YgTGDTBj643RxsURpiWlsOwVhPHjx2v/xg2Bt5sHPDtYN7mzRjbOcLQoQOaFWg/pVGZgy+vjsOjANY3RqFwJ3cXjcly/fquBBGACJ9Y3k6upSK1+0ElNaTJS/gDaOTvhr/hvsG7PdTw1ZQki955BZm4y1vYrxqGog01/EA5S9H51JFyzDyJqTRSO4AW8OtSa26YPVpRxr+pj3MYFjqYlKLXshaBq244fhyHebvDw7MD/Tsy4DVwcTVFSaoleQdXHj8e4Id5w8/BEB54GDLd1Q/DZ3wViblVDmDixsZtcRWrqnVrnK0Wy9mC46Du4qVRdxe4NO3Fr4DrEJ/yAbzavQeiMALSu+EsdtiwB3Eb8N+uw5/pTmLIkEnvPZCI3eS36FR9C1MHrXCP6UCHn/HkUc0tgr1JTL8PY1QNu13djw85bGLguHgk/fIPNa0IxI6A1Kv5io2aJyaRjd3SWZyMhvlY8/BWP+Azu0oaJE/OxCa6mpqKumVPwB9rB2emvZvfdxKkjXKTXkJ5WoDu38gIuZrNkyWixPtXw2Z79d7vZcdq43bmL2A+OhzSOqqv69VF1Ox7frNuD609NwZLIvTiTmYvktf1QfCgKB2+1168NFylsnB1hUZCJC7U6UJmxBa+PW4QD12odxDc+psOOrL1r6WkoqDlMiQsXs1mBwnhI9tE7XxyR8Yy/uUmkBfMerx0Mx8j2BQT2k+JM1HakscKoDsokbAtfjk8P/MEKnIftOx5UOTh/XheFKGZzwmVjuHq44fruDdh5ayDWxSfgh282Y03oDAS0rgAnb9781+x5Qm9Ov/nA65pq+OJZr54Pi1o0nzfuh85wbcFcfT/qi2KEcuU9XRFcfh3Xb9VquwU01/YtQuI7DqNdTmPNml/QflQQenEfj1n6ByPQNgEfvRGOn3KVzMg3Ebd2Ep7vPwJhp0q0OzUF0wEYO8IecevnY3taEdNEEdK2L8byz39DkaUNFE5OsLp1HLv2Z6nfDyHnyDKsPVxY792GFpuAYAw1jUH4jEjEF7BQLr2Eb0MWYXdJT4x9uTNMLu3F8hkzsexQDmuJ6eyvXPx5uxzWjo6wZFYuSz+AyMjvkGTgdylKnn4VL3e6jK1rvofkxbEYbMjXaIkkkEoIxXfvapNNbSz9ERxoi4SP3kD4T7msjyrcjFuLSc/3x4iwU+C3riX8gwNhm/AR3gj/CVr3xGHtpOfRf0QY9LvHqEm2bgj99vdgYaIHmwAEDzVFTPgMRMYXMNuU4tK3IVi0uwQ9x74MD70HNxX1FQQRym9mIesuC1LVbfz22Uws+f4umweUKDMS4dLe5ZgxcxkO5WiUgr9y/8Ttcms4Oqo/B+GDcOdAOEJ2X0SpqgQXds7Gkn0i+I8fgdYS9q5bVI6bWVnQnvo3fDZzCbSnLgMUAZgW3BanlgRj7ufHcPrELiwd/w525hNEmndONggIHgrTmHDMiIyH1szfImTRbpT0HIuXO5s0v+9WL2LSKCscW/kWtp4rhKosG9+/vxi7qgujFutTDY/tmQ5FPHHaOHrs/sCz6EMah/qqjB59GIkuYe/yGZi57BC07v0LuX/eRrm1IxwtbfVrgwWR6YCxGGEfh/XzWRFVxIqZojRsX7wcn/9WBEur2p3iG58VXpw0ClbHVuKtredQqCpD9vfvY/Gua9xE/pDso3e+cOUdf3Np/rzHZwdG5QUcjtyEPQkFmiMaxag9ghe9jW5py/Fy8BocucjGz1Yrc3/Gp/83DmvOd8L00ElwNn7YvuOB7uBAeAh2XyyFquQCds5egn0if4wf0RoSsQlE5TeRlXWXnUuF2799hplLvsddpgB1+uPNf82dJ3hy+gOva6rhiWf9enZqwXzO0OMH25bM1fUxUsDJyQq3ju/C/izWSWUOjixbi8OFhlYOPHD3Aj9iKik9/BmSinvQonPaB720qOjWyXAKcDUjIyMJyaQmJJK1o0GhMZSvvsFZffO1vA1NOcg9fMSoSF1KPeTdaUG8tp263wLBWiw4RSuGOpPcWEKmcjEZyZ1p6KpftE85KlNp40hXkhuZkMxURqbOAbRw+rNk1sBDcOrl6zGL6HlHOYmM2b6sbzIHP3o7+or2gbOKTPpqiicp2NsVWSsLkovFZOs7g/ZkaW8Ev7FxCBtvL1r5R607zvVSQanLniaJiSvNOKYbr37u0fG33UlqLKVW3WfTybxaD8ExVLdOUniAK5kZGZFEJiUTkYzaDQqlGK1xKdJfTm2mHOQeymFUJFGot5y8Q5O0y6pbdDI8gFzNjMhIIiOpiYhk7QZRaEy+7ib8xtBra0ZDvk0KJW+5N4UmqS3MY38eVNdjaNHzjiQXMf+YsrHLHMjv7Wi6wnvw/XZR/jKbPOS1fXmXtgbIax7wuR0zn56xNmE2MiNzmYSsvcZR+Dx/UiiG0zZm64rMr2iKp4KM2ThaWchJLLYl3xl7iJOKHtR9kZHVMy+SXxsJiSVMz1IH6j/vIOWpHaC6TTHznyFrE+ZfM3OSSazJa1w4zfNXkGL4Nm0MlaTQ59P6katCSmJzB/INnkkj3aXUfUGC5gzqJ3RjFj1PjnIRGctMmY9l5OD3NkVzhmp+31nTt2JpyeB2JDMSk4TFh03PiRTYzZR7mEG9XZ8+G6PuQ3B8tueL04bhs7v6oQ45tXvtiO5BDe6Y2g/BydtMoRp5K3+h2R5y6rXyj5oHSe5uDSC53UT26iGNg1cfFZT51RTyVBgz37ciC5Yvxba+NGNPlraPPNpQ97vg1Aoa6iwnY4kp65MR88tQWvWLOtvWtocB42O5JnbJYGonM9LYW2zTkyYGdiNTLjc/HD+zlvXNFzzjv8/HLDMlhXqT3DuUW24M/fOevofgeO1Q9DkNk4qpx+Jk7an0oqK8mGUU2EVBYpYnpeZmJGH2a+X2Ai34PpvT6SPwXWOo5wiZFT3zoh+1Ye1KmL6kDv1p3sE81ipr+XYMzX/GmkyYDc3MZSSx9qJx4fPIX6Gg4du4OYon/zV3ntCfF3nqmka5dd/cwwoeWtpDzvobrx4wb77Xr+dmzuc8flCPV+9c3WC+bBxl6kYa6SonIxZvpizunAMW0vRnzWo9BMdTt+hBpP6Hq4X/OagKkZWcipxiKRy6esLNWvdQRfOoRMGlJKTlqWDXyRsetrXbY++gLiTiwp1W6OjdBa35no2rLEBmUjryYY9Onh1gU6drVSjOTUPKpbswsnWHV+fWkHFb1N9nt2nkf4BN3+H/GXTJqAo3Ph+Jzh944GDiKvQ01ATsXV5W4jn8WeUAzx4uDVztUKEwKxmpOcWQOnSFp5u17gZ5A1EVZiE5NQfFUgd09XSD4e5poq0bQq/9+WA6yExCej5g38kTHZp2cJOoKsrGuXPZKFN0gFe3tjDl1tdQVYzctBRcumsEW3cvdG5doxQ93MbmF9pjkcMeZH7cDReSr0Hq6oUu9rWPrUJR9jmcyy6DooMXurWtdeaqfKTGXYOl55NoX/0skPIYZnQaitS3LiD2bUdupdrMmUjSGgqeHWzqaqRZfa+mDPkZ55BZYouuT7lC8RD0yWt7fXHaIIbY/cHz4MehRo8+OKqKc5GWcgl3jWzh7tUZ9d2rVxtqWIxeSkpDnsoOnbw9UCfd1oJ/fEwt+Rk4l1kC265PwbWeWB6OfdTomy8MGH9zaea8Z4gdm4YSNy+m4MK1UhjbuKF7FweY14vTh++7Bri9GS+0XwSHPZn4uNsFJF+TwtWrC+qmvyJknzuH7DIFOnh1Qx15G5z/mjlP8OXFB17XqOGPZz49N3k+N8QPalo0V9ej/CYuJF7AnVYd4d2lNZpTOjSIpgwWeOjcO72IAv/zNeXofWvFod6n+Hda1seGetb6qhGBx50G3u02hYrf6X0vKbkEf0WZ6q/7rLxFv659kexlT9LCBJ5LHI81LbS7gIBAy2ngU8ImIeS/B0NL/fAP4r7rLwIPB9kzodgTORbteS1eifjQHrCw9sUHZf/BiuldmnbPjMD/MCKIjIxhJGr8YUe9mHhhxsp34HR8MtwVpjA3s0fvpdnov2YL5vZ40E9y/S/RQrsLCAi0HBZ/RsZG7H/NjEIh/z0YWuqHfxD/zFsgHnNUhdlIv1IG+y6Nf3woINBsKu8gK/0P5FdYwLlzJ7Ru+WemAgICAv8OhPwnwCEUwAICAgICAgICAo8Vwi0QAgICAgICAgICjxVCASwgICAgICAgIPBYIRTAAgICAgICAgICjxVCASwgICAgICAgIPBY8T9TAKv+PIhV787Gh0fyuDVNQ3VlH8LnrMPx29ofbHygqK5gX/gcrDt+m1vRMpQ5Kcjg+ll6ZhPmLNyhef3vR4Ur+8IxZ91xbtkAlDlIybiNh+C1RijFmU1zsHBHGrf8oGmGDR4R/7u6axmqnINYEjwEfs8OxOQtGajk1jcdrbYWfdOSNprCP1drTaL0DDbNWYgdac2z2gPX8iPPSQ+alua4f5auCk9FYM7SPdxS83lwcc5pbtE3yHg0gS7QCP8jBXA54iNCEHakHJ6+9ty6pqHKO4ntEbuRcPchfCmGKg8nt0dgd8JdbkXzUV35L0b4TMCOHG16Lc/5FYd/PKd5/e9HhbyT2xGxO4Fb5oG9sfjvCB9M2JHzCCebcuT8ehg/nsvnlh80TbTBI+J/W3ctoRQHFk7G8p9N0DtwBAZ3t29BUr2H1L0R2Bxz5ZEVwP9ErTWZ8hz8evhHnMtXcSuaxgPV8t+Skx40Lc1x/yRdVaE4KRoR21pajD/IOGeRnroXEZtjcEUogP9W/jcKYFUu8i1HYcOOlRhs/T9zUbtBqPgGbhbrUqtizGdIPbuKW3rMoGLcuFn8iCcaBcZ8loqzqwZyy48Hgu4aoaoIeXlFaPPCLCx5dyZefcbqf+djtX8LijH4LPUsVg1s3g+kPlAt/y056UHzeOY4vQhx/j/JI/dh4Xdvou+rK/DZoqFwt5JCqnBB36mRSCjkdmCpIz92NYJ828NCYgKZbScMmfU1Msq4zQV7ML1vEOYvHIXO1maw9p6L40XXkHIyBr9eKud2KseV/aEI9G4Lc7EJ5Had4T9rB9JLuc2M0tQvMfM5d1jLJLB0G4T5R2+g9rXf8iv7ERrojbbmYpjI7dDZfxZ21G5AH6Wp+HLmc3C3lkFi6YZB84/iRu3Gq/IRuzoIvu0tIDGRwbbTEMz6OgPVQ2yMqrwoTJuwGeeVmdgW3AcTt2Zp7Nl78GJuD3XTsVgd5Iv2FhKYyGzRacgsfF1tvMLv8GbfYKzcthgjuj4BmcQM7Xq9zranIur1vnBqJYHEyh1Dl5/EHU0GL8R3b/bFqys+w6Kh7rCSSqFw6YupkQlsC0f5FewPDYR3W3OITeSw6+yPWTvS2ftlQyhF6pcz8Zy7NeuLJdwGzcfRuoZqXAtVeYiaNgGbzyuRuS0YfSZuRZaKZ/wNaedac2zSG4MXn+Re90Xwmq+wcvSTsDcVQ2rtAf95+5FTfTGq6gZOfDgR/TzsYCY2Zn2ygfvANxCVoeR24LNBC7VYi5Jj72NQ78nYzl3F1VB+FisC+uL1nY1f7XlQulvz1UqMftIepmIprD38MW9/Dmqu2TUzJtT23TmtD4atimdRz1GZjI9G9sGUL/7ULGpyTvAafLVyNJ60N4VYag0P/3nYX+0kXh81QuU5rH35RayOL0f+dzPQu9eb+I4Fhl5bMCpzDmHZGF84KaQQy23R9aX3caBGMKyGuhOHVS97obVcotHT4NnfarStobl91cCvNb6+N8xdHJjdH36z9uMOt0ZN8Q/zMLD/O9ivXsnjX14foRI5h5ZhjK8TFFIx5LZd8dL7B7RxptZX78FYfFKtAC4mV27D4hFd8QTL72bteuF1dq7UqNfR16kVJBIruA9djpPagK6nZZ75R5+WG8lJzY3fqhsn8OHEfvCwM4PYmPXFxh0D34hCjasLz+LTiX3Q0daMjckSjj6jERZznSu++efAxnVYO8cxWpzDqnDjxIeY2M8DdmZiGDP/27gPxBtRGTBEtVpKcOz9Qeg9eTvqpq8VCOj7Onbm11qpj+bETzPjnBkYh5aNga+TAlKxHLZdX8L7B2rlPLqDuFUvw6u1HBK13gfPxrfVgd6COG9xLm4MVtd8MWMgOlrJWN3WAc/P+xKfvNZXm2dZf/nyMNtJf2w1hl6dG+AHfah/CONRcivSn6QSGT3x5BT679HTdGLHfBpgLybH/9tLt9n2ipTV5Kewoh6vbaBDcYl0+tvlNNzFlDpMO0R32HbV9Q00SGJEpl6v0ZenTtHuXSfpRukhmuogpyEbb2jOUXIqhLqbWtKTU9bTwdNxFLN1FvWxlZDz5L10Q8V2KD5Gb7lL6Yln36UvYs9QbFQI9bc3IZG4D63OrFQ3QCHdTcmS9XH9wdMUF7OVZvWxJYnzZNqraUAfxXTsLXeSPvEsvftFLJ2JjaKQ/vZkIhJTn9WZbHsFpaz2I4VVD3ptwyGKSzxN3y4fTi6mHWjaIfUI9VCUTHvDAslZ3J6GL4qkvUl3NPaU2U3Ubq9IodV+CrLq8RptOBRHiae/peXDXci0wzTSNK3+DW+pmOROQ2hx9GlKPLmBRjuJycLGkZ7+zyaK+TWOouf2JoWsF608z+xAtyjSX0oS2RPMlv+lo6dP0I75A8he7Ej/t1ftrRI6FdKdTC2fpCnrD9LpuBjaOqsP2UqcafLeG8RrqWNvkbv0CXr23S8o9kwsRYX0J3sTEYn7rNZs16+FIkreG0aBzmJqP3wRRe5Nojs8429QOzeaYxMZ2U3cV/NaZu5Cz83/kmLj42h/mD+1FbehSfuKNGO4tSuI7GUdaewnRyg+JYXi9n+g6bMi8EuN3vls0DIt1qNgJ415Qk69V50n9UjUlB1/k9zMB9DHl6vXNMCD0J1MRuYuz9H8L2MpPm4/hfm3JXGbSaQ1UwtiQnWVPhkgJ+fpP1EZt4qUP9M77nIu3tSnZ32VmZPLc/Ppy9h45oMw8m8rpjaT1D7k91GjqK7TmW8+ogldJWQ7KIT++9lhyijmsYUykZb5mpOl91TaeDSeEo5F0uTuZqQYEkGXK7XxJjJuTf3nRtGJxAQ6vGY4tRe3pgl7DdOTPni1xufHRlHR9c+Hk5VVIH15i1vFInTXq3akCNhC11T8/uXzkTJxGfmaW5L31I10ND6BjkVOpu5mChoScZnTlx1N3HdP3ZLGhmK5Ew1ZHE2nE0/ShtFOJLawIcen/0ObYn6luOi51Fsho14rz2varq1lvvlHv5YbyEnNjt9btCvInmQdx9InR+IpJYXllg/UMaigwC81MyX9+l53Mus0kSKPJVLq70fow0BHkrSbSoeKDZgDeXVYneNYT1qaw27toiB7GXUc+wkdiU+hFGazDwKdSaxgeuETbS0Kdo6hJ+S9aZUmD6spo+NvupH5gI9Zn7lV96Giq58MILnzdM1Ss+KnOXFOSkpc5kvmlt40deNRik84RpGTmb8UQyiCdVatOanImFr3n0tRJxIp4fAaGt5eTK0n7NWcstlx3uJc3BjFdPxtD5Ja96SZ247TmeOfMx07kJlMos2zBuRh3thqEP06b37O0vL3FMDSZyg8rVqxKsrbEkAKi5fos/xSinndiWQ9V1CNxhm3okaRtcUw2sbqW00RI5XRoIhcXYFVVrsALqLdr9qQvNcKyqhpg51j6zBSmA6k9dkqKooOJlu5H32oLna57bmbXiALibYALtr9KtnIe9EKXQOkyttKwxSmNHB9tu68DVEUTcG2cvL7MLOmyFDlbqIXLDihlMXQ604y6rlCV4SwEVLUKGuyGLaNtCV841QkL6Yeck96//cKzXLt5F0W8zo5yXrSirrGo1HWFjRMbTxNAazth3aPMjo6zZHETtPoqHruYKjyPqXnZG1oygHdZCJ9Jpx07sqjLQEKsnjpM8ov3E2v2sip14oM3VjY9q3DFGQ6cD0xU+uhiKKDbUnu9yHp3JBLm16wIIkmcZbxaoEZgxb3kJPn+7+zMOEff4PaaZZNahfA7A2C31q6Ut2gMpZmusno6bB0tqCi/LM7aN22E9pJR4OSTr7dkWRPh1F6JZ8NmJVaosX7+Iv2TmxD0h6LKVkjnxL6cZoTWfpvpKs8DT0I3fmtvVLTX2XsTHKTPU1h6eyYlsSEgQWwVOJHa3VOotiZbhof8PuIW9UYTO+fPicnlxnHNOfns4Vm3FJPWpCg5DayqeWnMBo35VM6W8bp6dkPdHpQnqbZHjLyWZbGFlrSV36t8fpRH+zN1Vg7BQ3bel3r49tf0cs2T9DLX7GK2AD/6veR9rXUcwHpzFZMP4WNoymfnlUffF8BrB5T9TjLjk4jR7ETTdMFNPOZjNpMOaBZ1GnZgJzDp+V6OanZ8avKp7M71tG2E7UuJChP0tsdtbmlku5RdJA1teobRr/f1e5RmfUjbYrYR6msEOebA/l1WJ3jWp7DVPlnace6bXRC1wAbytvUsdpmhvLXXprYRko9FidrbEslP9I0J0vy33i1cTuyLboCuAXx08Q4184DUvJckMDOwFH8E4WNm0Kfni3j9P4sfaALdDo924NkPsvY6+b3s8W5uDGKv6XxtuxNY60YVmX/l4a0MrQANiC2GkSfzg0YLw9/y20sxi5+6N/BmFsygl1PX3QoP4/UjBwkpVxD5fmNGOnVDd26af/6LT6F0nsXkZbJXVwXWcHJybrh+zcqLyPlfAna9+oL1+pTqM/h1wddVBeQnH4PWakZKHLwhk/7Wn3o3RMdTdSvK3E55TxK2vdCX10DMLLzQ58uKlxITkcFt64hKrNSkVHkAG+f9qhp3a43emobhyovCSnXKnF+40h4cePr1q0fFp8qxb2LaageYtNRIS8pBdcqz2PjSK8a23XrtxinSu/hYlqm9qMJkQXc3B24volgai6HSRsntBdrVsDI1BRykQqVNZ+HGMPFrz907rJDT98OKD+fivQ/UnC+pD169XWtGat6u1+fLlBdSEa6fkMxfxfBwdsHOjfYoXfPjtBYSpVnmBZqMHT8DWinyTapjQgK1w6wr27QSAFFKxEqy9VnY7ryHYPxPoWIXhGC6RNGYpBPFwyPyISqqgpVFTw2aKEW76cVBo8NgF3KHnydWAmUxGLngb/Qf8wItGl2JjDU7gq4dtA9OGKkUKCVqBLl5fQQY0KHSOGKDjonQaFoBVGlAT6qe4cAD3y2uIjraenItXwKvl0l3DGA2cAFiNryBnw1t7AyPbm5w6FGDxawMBdBWXZPvdD8vvLFm6F+bAyrFxE01Awn9nyPfNaXG9/vwk+SF9g6G4P926iPqgqQlp4Ly6d8oTObGQYuiMKWN3y55dqIYFHLhiJTc8hN2sBJF9AwlYugqh/QhuYcPVquSwvil/nGd8x4+BRGY0XIdEwYOQg+XYYjIlOFKmZfggwDJoyH428L4dO2HbwGj8e874rgO3oousr45kAlCnh1WE1Lc5h60RdjxvugMHoFQqZPwMhBPugyPAKZKnZ8UwKs1WCMDbBDyp6voU1fO3Hgr/4YM6JNjS/086BinT9WygrSkJ5riad8u0In2YFYELUFb3AGFinc4K4LdFhYmEOkVH9039x+tjwXN4YqOw3n/7LHU8846+oaBz8826nayzw0eT6vRo/OzVuYsxgG9v7BIpLJIa+tWGMTZlRiwaCEkvXYokcQ5kzsrCuq1Bi1Qic31l21j0TG7BCRdv19lLPExgYmrjs0ETuHCZh4VMQKGZb4jNTLOkQyGaRck+XaBuoah53ThK2oqlLVuVf4PlhSVTFpqfetQSSDrLpxpZL10AI9guZgYuc6I2RD7AT1EJuLUms8BM2ZiLpNG6FVJzc2nlTWFzHE3DxQg0hU19Z1EEEml9cEixpjE7Y3MVuWs6KQtVrX1KwtraHATK2HSmjdUMdQkMmk7F81BmihHvzjT2KnaEA7TbZJbdh+xvX2rGm+Cnm7J6Pv+J2418UPfj26w2/SKLx0ZgFCLqi389mghVpsANMBQRjRfjuiv4nDbL9dOKwcjA+Hta7j36ZimO6Y3Rsz0wOIibp2UE8SddeI2Mnrtlx9dj4fNQ0+W9AZ5nAWP+J6EtTBxc99qMfTkr7ya43fj/owx+Bxw2E9cg/25b4A410n0CrgazxvyTZdM8y/jfuoQvPm08RYXLNGPyIWz/cFtFqCPBiYc/RpuR7Njt+qPOye3Bfjd95DFz8/9Ojuh0mjXsKZBSGodrXVkI9xJvEFfPNVNA7+eAxb5n6FdWtGYOOxEN45sEJrUD06rKblOawqbzcm9x2Pnfe6wM+vB7r7TcKol85gQZMDzBQDgkag/fZofBM3G367DkM5+EMMa21o9npwsc4bKxXxrA5gdY0eA2v90RDN72eLc7EeSMT6a1xrT5H2jWRtGs/DTZ/Pq2lU5ye/Qe8W5Sz1Xn8DqpzzOF/MLTCKU1Nx2dgVHp3aw8XRFCWllugVNB7jx2v/xg3xhpuHJzoY8g0PJk6sDRNcZW1yzzhoKE1OwR9oB2cXOZw6ukB6LR1pBbodlBcuIpslDdYAnFwcYXI1Fal1G0DKH0A7ZxfUT621MXHqCBfpNaSnFTD3cygv4KK2cRi3cYGjaQlKLXshiBvf+PHjMMTbDR6eHcA7RFaYNYwx2rB+m5aUwrJXUI3txo8bAm83D3h2aOSKOS8q5Jw/D527ipGaehnGrh7o7MrGYnKVLd/RjRWlSNYaCi76DYWOLlJcS0+Dzg1KXLiYzVIqw7iNAVpgk5p6Xw0Pa/wtoOoqdm/YiVsD1yE+4Qd8s3kNQmcEoHXFX+rUgCo+G7RQiw0i7Y1XR7oi+2AU1kQdAV54FUOtuW36eIi6a1lMqJM5oVx5T5d8y6/j+q1a9tIHn4+43QyDzxZPwNbZERYFmbhwXddyZcYWvD5uEQ5c4zlbS/rKq7WW+1HWdxxGto3D3u1bsfvnJzBi3ACYsfUtznlGNnB2tEBB5gXozFaJjC2vY9yiA9zyA8CgnMNH7ZzU/PiturobG3bewsB18Uj44RtsXhOKGQGtUfEXa6dK/Xcb8d+sw57rT2HKkkjsPZOJ3OS16Fd8CFE/yHnmQClsDNVhi3NYFa7u3oCdtwZiXXwCfvhmM9aEzkBA6wpUD6UpSHu/ipGu2TgYtQba9DUUhqQvDQ8s1vljxcTGGY4WBci8oHtYixkYW14fh0UHrnErGqHZ/Xx4c6Bxew90MFXXNbd05y87jwuX2bsfDTx5uLmxpU/nB2+2eLzNtUeLoDsHEB6yGxdLVSi5sBOzl+yDyH88RrS2gn9wIGwTPsIb4T8hV8nKr5txWDvpefQfEYZTJVwDerFBQPBQmMaEY0ZkPApYFJZe+hYhi3ajpOdYvOxhDKsX2TtQq2NY+dZWnCtUoSz7e7y/eBeq494mIBhDTWMQPiMS8doG8G3IIuwu6YmxL3swV+vB6kX2Tt0Kx1a+ha3nCqEqy8b37y/GrurGLf0RHGiLhI/eQPhPuSxVqHAzbi0mPd8fI8JOgW+IIokUEirG3bva9FIbS/9gBNom4KM3wvGT1niIWzsJz/cfgTDDjNcAhDsHwhGy+yJKVSW4sHM2luwTwX/8CLS2DUDwUFPEhM9AZHwBS3iluPRtCBbtLkHPsS+DmVoPVniRvau1OrYSb209h0JVGbK/fx+Ld13jAsySXwsiCaQSQvHdu5pk+3DG3xLUV8dFKL+Zhay7bFSq2/jts5lY8v1dNkcoUcZrA0O0WIb0A5GI/C4JNd/MoRcJnn71ZXS6vBVrvpfgxbGD0Yrboo+HqruWxISRAk5OVrh1fBf2Z7FzK3NwZNlaHC5s9NpaPfh81DT4bGE6YCxG2Mdh/fztSCtik1lRGrYvXo7PfyuCpRVfOm5JX/m11mI/SnwxbrQLTq9Zg1/aj0JQL+6z9BbmPM2Vv7EjYB+3HvO3p6GIVU1FaduxePnn+K1IfYn5QWFAzuGjXk5q9lyivmosKsfNrCxoXf0bPpu5BFpXM08biXBp73LMmLkMh3JYR9nZ/sr9E7fLreHo6Mw7Bxquw5bnMPWVaFH5TWRl3WXrVLj922eYueR73GVK0Hzi35QcJnkar77cCZe3rsH3khcxdrAh2auaBxfrvLFiOgBjR9gjbv18bE8rYoV+EdK2L8byz39DkaUV10pjNL+fD20ObOWPiaPtcOqDt7A58S5ULM8eWrwYO/O4Apg3DzcztvTq3LLl4+XuBX5kaB44sHqGXvRrQxKxhMRGUnLoP48O5nG3ZKtu0cnwAHI1MyIjiYykJiKStRtEoTH5mpu2NQ8yydvRa0dqbrWmug/BMVTXKWbR8+QoF5GxzJS1ISMHv7cp+or2AR62A92KXUKD28nISN0HsQ31nBhI3Uy5b4Fg26/HLKLnHeUkMpaRqdSEZA5+9Hb0Fe3N9zyobsXSksHtSGYkZmMUk03PiRTYzbTmoRzVrZMUHuBKZkZGJJFJyUQko3aDQikmv+aO98a5d5zedpeSsbQVdZ99stYDHGrYuE6GU4CrGRkZSUjG+i2StaNBoTGkaVp9A7y8DU05yD0MQkr6ZbYHyXutpD+q7yG/u5UC5LUfKJGR1TMvkl8bZieJmIykDtR/3kGqcdf1GFr0vCPJRcYkM2VjkTmQ39vRVGNqfTBfxy4ZTO1kRpq2xTY9aWJgNzLlHp7g04L6Bvnjb7uT1FhKrbrPppNK/eNvUDvNtInuITg5tZlykPWEoyKJQr3l5B2axBZUdDtmPj1jbcL6b0bmMglZe42j8Hn+pFAMp22aTvHYgFeLN2jjECmJa/eXj4pUWva0hExcZ9Cxmo7z8EB1pzZTKHnLvSk0STuKlsSEMnUjjXSVkxGLc1MW784BC2n6s2Z1HoKTt5lCutNXUFKoN8m9Q9lrA3ykj3oPx/Dagm0vOLWChjrLyVhiSnKxEcmdh9KqXzSPaDegp1Ra2kNO3RfEs4WW9pVfa/r7zk9lejg9IxVTj0Xn6uRKPv/q9xFDVUCnVgwlZ7kxSUzlbN6Qk/PQVaQ1G9NXnYfg6tpQ+cts8pD3opW6gKatAXLdtxzU1jJfzuHV8v05qVlzieo2xcx/hqxNmL3MzEkmsSavceE0z19BiuHbNP6oyPyKpngqyJi128qC2URsS74z9lCWZgrjnwP161D3EFxLc5jqdgzNf8aaTJimzMxlJLH2onHh88hfoaDh29R2bVoOq0hdRk9LTMiVxZzOC41R9yG4ZsdPk+Oc7VFwilYMdSa5sYRM5WzulDvT0FW/aL7xoCG9py7tQfLuC9jrlsR5y3Nxo9w5TasDnLV1DfOzzdMB1NdBVpNn+fIwb2w1gl6dG+AHfYjU/3C18CPh9uYX0H6RA/ZkfoxuF5JxTeoKry72kHHbq1EVZiE5NQfFUgd09XSDte5efYOpLMhEUno+YN8Jnh1sdDejV1OWj4xzmSix7YqnXBX3Xw6vLEBmUjryYY9Onh1g06Q+lCE/4xwyS2zR9SlXKO5rXIXCrGSk5hRD6tAVnm7W9/evEaqKspB47k9UOXjiaZcGroCoCpGVnIqcYikcunrCrTnG03Abm19oj0UOe5D5cTdcSL4GqasXutjX91YlCjKToDW1Jzo0zVDMDRk4l1kC265PwfV+Q+nXAntnnZV4Dn9WOcCzhwss1Yc/sPE/GKqKsnHuXDbKFB3g1a0tTLn1teGzgT4tVt3YhJH/ATZ99/9g0O1wVTfw+cjO+MDjIBJX9fwH6a75MYHym7iQeAF3WnWEd5fWaOpPIhjioybBZwvmz0tJachT2aGTtwdsm2CqlvaVV2sPLX5a4F+OyoJLSErLg8quE7w9bJt8vKG0aP5pKCc1ay6pQlH2OZzLLoOigxe6tW3A01XFyE1LwaW7RrB190Ln1nVzM+8caKAOW5zDmE2yz51DdpkCHby6of5QmpLDqm58jpGdP4DHwUSs6tl0BTzQWOeNFTY3XkpCWp4Kdp284dGEQG9RPx9aDJfjxvlE/FFsh27d8rDUazDOTk3Bz3PcuM38ebhZscWj8+aO9+8rgC9vwYv16yiBfxi6Avjylhfve5Mi8E+gDGcWB2Fbp3XYOLY97z1N6o8l7yWGYcjggxh68mfM76L3PhUBAQGBh4yhOUyTvZAYNgSDDw7FyZ/nQ0hffyPlv+Dd7vUK4H8ZfPPlA0ckMoKxkajxZ2oE/kEwPxkZw4g5S3DXPxUZngndg0gDil9UxiO0hwWsfT9A2X9WYLowewgICPztGJbDKuND0cPCGr4flOE/K6YLxe/fjghGxtr64N/KI78CLCAg8HehQmF2Oq6U2aPLQ/z4WEBAQOCBoypEdvoVlNl3adKtBAICjSEUwAICAgICAgICAo8Vj/wWCAEBAQEBAQEBAYG/E6EAFhAQEBAQEBAQeKwQCmABAQEBAQEBAYHHin9/AVx6BpvmLMSOtEqg+Bf8d84ifJNx/69VaSnFmU1zsHBHGresQ5W9HyvenYN1x27U/IJNkyk8hYg5S7HnYvXPAwoICAgICAgICPzT+PcXwOU5+PXwjziXr0JVSTK+/XQzYq40VgCXI+fXw/jxXD63XE0ZTq+bi/AYgudTds02SlVxEqIjtuH41cbOLyAgICAgICAg8Hfz7y+AFWPwWepZrBpoyG8/KTDms1ScXTWQW+ZQXcUNqzHYGBWGAQpunYCAgICAgICAwP8kj7wALtgzHX2D5mPhqM6wNrOG99zjQFU+YlcHwbe9BSQmMth2GoJZX2egjDtG/XOCOYeWYYyvExRSMeS2XfHS+weQo77ToPA7vNl7MBafLNfuCkLBL2EI8LCCRGIB52enIjKxiNtWiO/e7I3Bi09yy+W4sj8UgT5+mLh0OaY+5w3/WTuQXsptvo8q5MeuRpBve1hITCCz7YQhs75Ghq6jelCfuy9eXfEZFg11h5VUCoVLX0yNTGBbtFTdOIEPJ/aDh50ZxMasfRt3DHwjChlKbgeUIvWLGRjobg2ZxBztek1FxJppeHb0J9x2bjzebWEuNoHcrjPPeAQEBAQEBAQEHj8ecQFchYqbf+DXnZ/g+ycWYP8PkXjvpU5I/fAVBK68CO/3duJUwnFETpBj39RhmHX4ruao8qSVGD3mQ/zh9R72/BKHQ+E9kf3xeLy26QqrjW8hMzEZWXe5O3dZMb3/vz/Aac4enPxpE4IkBzBj5Ds4eEe9sRK3MhORnKVtt/TnUAx/9RNk9XgPu07+ggOrXkDxV/+HoW/uw80GbgSuTP0QrwSuxEXv97DzVAKOR06AfN9UDJt1GNoW9aE+dzy+XToP+9u8g92xR/HfV8U4OGMUZu0rYNtvI3rWWLx/pi1mfHkCied+we753XBl85tYsFu9HSj+aR5GvbYTFcM+xpFTh7H2+VysWrAZZ9NyNdubOh4BAQEBAQEBgccS9Q9hPDpUdH3DIJLKBlFErkq7qiyGXneSUc8V56lSu4Zxi6JGWZPFsG10g5QUO9ONpJ4LKEHJbaZi+ilsHE359CzbNZL8ZXY0cd89Ul3fQIOkMnr2gws1balyN9ELFgoK/OI2W7pFkf4yspu4j70uot2v2pC81wrKqDmxivK2DiOF6UBan831r4YyinndiWQ9V9B5XUfpVtQosrYYRttusKOvfkID5M40/acybmtt1OeWkvSZcEqr6VwebQlQkMVLn1F+RT6d3bGOtp24wXrBoTxJb3eU0dNh6Ww8d+jr0dbUanAE6bp2m3a+akfiznPZ66aOR0BAQEBAQEDg8eRvuQdYZOUEJ2vtqVV5SUi5VonzG0fCq1s3dNP89cPiU6W4dzENmWUFSEvPheVTvuha8+uHZhi4IApb3vDllmth7ISefZxR/TPhRnbP4Gm3MmSkXET1TRIaKi8j5XwJ2vfqC9ea3xQ3gp1fH3RRXUByegW3jkOVh6SUa6g8vxEjvar72Q39Fp9C6b2LSMus03ojGMPFrz866DqHnr4dUH4+FRer7OA7Zjx8CqOxImQ6JowcBJ8uwxGRqUJVVRWo8g8kZ5TC6WlftK3xmgK9enaFWP2yqeMREBAQEBAQEHhM+XsKYGNjmIi4BaWSFaYW6BE0ByEhITV/oWsisW3FK3AzqUClCjAxFqP6EP2IIRHXHpYJTNSL9/3iczlUlWyr2IRb1iIyZvujClWq+vsroWQ1rkWPIMyp1c+Q0DWI3LYCr7jVbadhRJDJ5XWMbmzCqlVi56vKw+7JPvB5ZSmikwogdfXDpCWLMNqxrouIFcMN383Q1PEICAgICAgICDye/C0FcG2M27jA0bQEpZa9EDR+PMZr/sZhiLcbPDw7wNrEBs6OFijIvIDrNZVfJTK2vI5xiw5wy7VQ5eLiH8XcAqMoBSlZJnBxd2OFYC1MnODiaIKrqam4U6uiLE1OwR9oB2cXzXVVHcZt2P6mKCm1RK+g6n6Ox7gh3nDz8EQH7oq2flTIOX8eut4VIzX1MoxdPeB2fTc27LyFgevikfDDN9i8JhQzAlqj4i/WOVb0wqQjuneWIzshvpYd/kJ8fAY013abOh4BAQEBAQEBgceUv70AhqU/ggNtkfDRGwj/KRdKViTejFuLSc/3x4iwUyiBKQaMHQH7uPWYvz0NRawYLErbjsXLP8dvRZZcI7Wguzi44j3szSpDVXE6ot5ZggPiFzF+2BP1BmuDgOChMI0Jx4zIeBRUsmLx0rcIWbQbJT3H4mWPmvsIOCzhHxwI24SP8Eb4T8hVsnL2ZhzWTnoe/UeE4VQJt5teCHcOhCNk90WUqkpwYedsLNkngv/4EWgtEcNEVI6bWVlQP8+nuv0bPpu5BN/fVV8kV3/NhAIB04LR9tQSBM/9HMdOn8CupePxzs58kEh9bdyA8VRewOHITdiToH2oTkBAQEBAQEDgsYS7F/gRoX0ITt7uNTpS6zkx1a2TFB7gSmZGRiSRSclEJKN2g0IpJp97cEtVQKdWDCVnuTFJTOUkNpKT89BV9Msdtq3+Q3CmHWnYxAHURiojmdiIxPZ+9N6Ra9yDZbUfgmOorlPMoufJUS4iY5kpSU1k5OD3NkVfqdBur4/qFp0MDyBXMyMyksjY/iKStRtEoTH5mvb5H4KTkdUzL5JfGwmJJWIykjpQ/3kHKU9z8G2Kmf8MWZswG5iZk0xiTV7jwmmev4IUw7eR1hQllPL5NOrnqiCp2JwcfINp5kh3knZfoN7IP56iz2mYVEw9FidrlwUEBAQEBAQEHkNE6n+4WvhvRoXCrGSk5hRD6tAVnm7WqHnmjaOy4BKS0vKgsusEbw/b+7brqEJxdiKScsVwfdITbU251Y1QWZCJpPR8wL4TPDvY6GlXi6owC8mpOSiWOqCrpxus+Q7QcBubX2iPRQ57kPlxN1xIvgapqxe62Mu47WqqUJR9Dueyy6Do4IVudTpehfzUOFyz9MST7c25dUocm9EJQ1Pfwr3Yt7l1TR+PgICAgICAgMDjxD+oAP5fR1cAX97yImqXvYZRicSFPuj1VXdsPboJQW5S3I7/BBOGvYe8//yMxKU9uP0EBAQEBAQEBAT08fffA/zYIILIyBhGIvZ/bk3TMIHXjJV4x+k4JrsrYGpuBvveS5Hdfw22zBWKXwEBAQEBAQEBQxGuAP/rqMSdrHT8kV8BC+fO6NSa5/4OAQEBAQEBAQGBOggFsICAgICAgICAwGOFcAuEgICAgICAgIDAYwTw/wGCQZ8l7ON2JgAAAABJRU5ErkJggg==;" vertex="1" parent="1">
          <mxGeometry x="-344" y="40" width="704" height="100" as="geometry" />
        </mxCell>
        <mxCell id="mCAhjloM50CXQR4EmnHI-2" value="VEHÃCULO" style="rounded=0;whiteSpace=wrap;html=1;" vertex="1" parent="1">
          <mxGeometry x="-390" y="300" width="120" height="60" as="geometry" />
        </mxCell>
        <mxCell id="mCAhjloM50CXQR4EmnHI-3" value="Tuvo" style="rhombus;whiteSpace=wrap;html=1;" vertex="1" parent="1">
          <mxGeometry x="-140" y="290" width="80" height="80" as="geometry" />
        </mxCell>
        <mxCell id="mCAhjloM50CXQR4EmnHI-4" value="ACCIDENTE" style="rounded=0;whiteSpace=wrap;html=1;" vertex="1" parent="1">
          <mxGeometry x="90" y="300" width="120" height="60" as="geometry" />
        </mxCell>
        <mxCell id="mCAhjloM50CXQR4EmnHI-7" value="Modelo" style="ellipse;whiteSpace=wrap;html=1;" vertex="1" parent="1">
          <mxGeometry x="-600" y="260" width="120" height="70" as="geometry" />
        </mxCell>
        <mxCell id="mCAhjloM50CXQR4EmnHI-8" value="Patente" style="ellipse;whiteSpace=wrap;html=1;" vertex="1" parent="1">
          <mxGeometry x="-464" y="180" width="120" height="60" as="geometry" />
        </mxCell>
        <mxCell id="mCAhjloM50CXQR4EmnHI-9" value="ID_vehiculo" style="ellipse;whiteSpace=wrap;html=1;" vertex="1" parent="1">
          <mxGeometry x="-310" y="180" width="120" height="60" as="geometry" />
        </mxCell>
        <mxCell id="mCAhjloM50CXQR4EmnHI-10" value="" style="endArrow=none;html=1;rounded=0;entryX=0.366;entryY=0.95;entryDx=0;entryDy=0;entryPerimeter=0;" edge="1" parent="1" target="mCAhjloM50CXQR4EmnHI-9">
          <mxGeometry width="50" height="50" relative="1" as="geometry">
            <mxPoint x="-310" y="300" as="sourcePoint" />
            <mxPoint x="-260" y="250" as="targetPoint" />
          </mxGeometry>
        </mxCell>
        <mxCell id="mCAhjloM50CXQR4EmnHI-11" value="" style="endArrow=none;html=1;rounded=0;entryX=0.5;entryY=1;entryDx=0;entryDy=0;" edge="1" parent="1" target="mCAhjloM50CXQR4EmnHI-8">
          <mxGeometry width="50" height="50" relative="1" as="geometry">
            <mxPoint x="-370" y="300" as="sourcePoint" />
            <mxPoint x="-320" y="250" as="targetPoint" />
          </mxGeometry>
        </mxCell>
        <mxCell id="mCAhjloM50CXQR4EmnHI-12" value="" style="endArrow=none;html=1;rounded=0;exitX=1;exitY=0.5;exitDx=0;exitDy=0;" edge="1" parent="1" source="mCAhjloM50CXQR4EmnHI-7">
          <mxGeometry width="50" height="50" relative="1" as="geometry">
            <mxPoint x="-440" y="370" as="sourcePoint" />
            <mxPoint x="-390" y="320" as="targetPoint" />
          </mxGeometry>
        </mxCell>
        <mxCell id="mCAhjloM50CXQR4EmnHI-13" value="Cubre" style="rhombus;whiteSpace=wrap;html=1;" vertex="1" parent="1">
          <mxGeometry x="-370" y="430" width="80" height="80" as="geometry" />
        </mxCell>
        <mxCell id="mCAhjloM50CXQR4EmnHI-15" value="POLIZA" style="rounded=0;whiteSpace=wrap;html=1;" vertex="1" parent="1">
          <mxGeometry x="-390" y="585" width="120" height="60" as="geometry" />
        </mxCell>
        <mxCell id="mCAhjloM50CXQR4EmnHI-17" value="Tiene" style="rhombus;whiteSpace=wrap;html=1;" vertex="1" parent="1">
          <mxGeometry x="-170" y="575" width="80" height="80" as="geometry" />
        </mxCell>
        <mxCell id="mCAhjloM50CXQR4EmnHI-18" value="PAGOS" style="rounded=0;whiteSpace=wrap;html=1;" vertex="1" parent="1">
          <mxGeometry x="50" y="585" width="120" height="60" as="geometry" />
        </mxCell>
        <mxCell id="mCAhjloM50CXQR4EmnHI-21" value="Fecha_venc" style="ellipse;whiteSpace=wrap;html=1;" vertex="1" parent="1">
          <mxGeometry x="40" y="700" width="120" height="60" as="geometry" />
        </mxCell>
        <mxCell id="mCAhjloM50CXQR4EmnHI-22" value="Fecha_recibido" style="ellipse;whiteSpace=wrap;html=1;" vertex="1" parent="1">
          <mxGeometry x="220" y="645" width="120" height="55" as="geometry" />
        </mxCell>
        <mxCell id="mCAhjloM50CXQR4EmnHI-23" value="" style="endArrow=none;html=1;rounded=0;exitX=0.5;exitY=0;exitDx=0;exitDy=0;entryX=0.5;entryY=1;entryDx=0;entryDy=0;" edge="1" parent="1" source="mCAhjloM50CXQR4EmnHI-21" target="mCAhjloM50CXQR4EmnHI-18">
          <mxGeometry width="50" height="50" relative="1" as="geometry">
            <mxPoint x="-90" y="590" as="sourcePoint" />
            <mxPoint x="-40" y="540" as="targetPoint" />
          </mxGeometry>
        </mxCell>
        <mxCell id="mCAhjloM50CXQR4EmnHI-24" value="" style="endArrow=none;html=1;rounded=0;exitX=0;exitY=0;exitDx=0;exitDy=0;entryX=1;entryY=0.5;entryDx=0;entryDy=0;" edge="1" parent="1" source="mCAhjloM50CXQR4EmnHI-22" target="mCAhjloM50CXQR4EmnHI-18">
          <mxGeometry width="50" height="50" relative="1" as="geometry">
            <mxPoint x="-90" y="590" as="sourcePoint" />
            <mxPoint x="-40" y="540" as="targetPoint" />
          </mxGeometry>
        </mxCell>
        <mxCell id="mCAhjloM50CXQR4EmnHI-25" value="Fecha_acc" style="ellipse;whiteSpace=wrap;html=1;" vertex="1" parent="1">
          <mxGeometry x="110" y="400" width="120" height="60" as="geometry" />
        </mxCell>
        <mxCell id="mCAhjloM50CXQR4EmnHI-26" value="Num_acc" style="ellipse;whiteSpace=wrap;html=1;" vertex="1" parent="1">
          <mxGeometry x="270" y="280" width="120" height="55" as="geometry" />
        </mxCell>
        <mxCell id="mCAhjloM50CXQR4EmnHI-27" value="&lt;u&gt;ID_acc&lt;/u&gt;" style="ellipse;whiteSpace=wrap;html=1;" vertex="1" parent="1">
          <mxGeometry x="120" y="200" width="120" height="60" as="geometry" />
        </mxCell>
        <mxCell id="mCAhjloM50CXQR4EmnHI-28" value="" style="endArrow=none;html=1;rounded=0;exitX=0.5;exitY=0;exitDx=0;exitDy=0;" edge="1" parent="1" source="mCAhjloM50CXQR4EmnHI-4">
          <mxGeometry width="50" height="50" relative="1" as="geometry">
            <mxPoint x="125" y="310" as="sourcePoint" />
            <mxPoint x="175" y="260" as="targetPoint" />
          </mxGeometry>
        </mxCell>
        <mxCell id="mCAhjloM50CXQR4EmnHI-29" value="" style="endArrow=none;html=1;rounded=0;exitX=1;exitY=0.5;exitDx=0;exitDy=0;" edge="1" parent="1" source="mCAhjloM50CXQR4EmnHI-4">
          <mxGeometry width="50" height="50" relative="1" as="geometry">
            <mxPoint x="220" y="355" as="sourcePoint" />
            <mxPoint x="270" y="305" as="targetPoint" />
          </mxGeometry>
        </mxCell>
        <mxCell id="mCAhjloM50CXQR4EmnHI-30" value="" style="endArrow=none;html=1;rounded=0;exitX=0.412;exitY=0.061;exitDx=0;exitDy=0;exitPerimeter=0;" edge="1" parent="1" source="mCAhjloM50CXQR4EmnHI-25">
          <mxGeometry width="50" height="50" relative="1" as="geometry">
            <mxPoint x="110" y="410" as="sourcePoint" />
            <mxPoint x="160" y="360" as="targetPoint" />
          </mxGeometry>
        </mxCell>
        <mxCell id="mCAhjloM50CXQR4EmnHI-32" value="" style="endArrow=none;html=1;rounded=0;entryX=1;entryY=0.5;entryDx=0;entryDy=0;exitX=0;exitY=0.5;exitDx=0;exitDy=0;" edge="1" parent="1" source="mCAhjloM50CXQR4EmnHI-3" target="mCAhjloM50CXQR4EmnHI-2">
          <mxGeometry relative="1" as="geometry">
            <mxPoint x="-150" y="400" as="sourcePoint" />
            <mxPoint x="10" y="400" as="targetPoint" />
          </mxGeometry>
        </mxCell>
        <mxCell id="mCAhjloM50CXQR4EmnHI-33" value="(1,1)" style="resizable=0;html=1;whiteSpace=wrap;align=right;verticalAlign=bottom;" connectable="0" vertex="1" parent="mCAhjloM50CXQR4EmnHI-32">
          <mxGeometry x="1" relative="1" as="geometry">
            <mxPoint x="30" as="offset" />
          </mxGeometry>
        </mxCell>
        <mxCell id="mCAhjloM50CXQR4EmnHI-34" value="" style="endArrow=none;html=1;rounded=0;entryX=0;entryY=0.5;entryDx=0;entryDy=0;" edge="1" parent="1" target="mCAhjloM50CXQR4EmnHI-4">
          <mxGeometry relative="1" as="geometry">
            <mxPoint x="-60" y="329.26" as="sourcePoint" />
            <mxPoint x="80" y="329" as="targetPoint" />
          </mxGeometry>
        </mxCell>
        <mxCell id="mCAhjloM50CXQR4EmnHI-35" value="(1,M)" style="resizable=0;html=1;whiteSpace=wrap;align=right;verticalAlign=bottom;" connectable="0" vertex="1" parent="mCAhjloM50CXQR4EmnHI-34">
          <mxGeometry x="1" relative="1" as="geometry" />
        </mxCell>
        <mxCell id="mCAhjloM50CXQR4EmnHI-36" value="" style="endArrow=none;html=1;rounded=0;entryX=0.5;entryY=1;entryDx=0;entryDy=0;" edge="1" parent="1">
          <mxGeometry relative="1" as="geometry">
            <mxPoint x="-330" y="430" as="sourcePoint" />
            <mxPoint x="-330" y="360" as="targetPoint" />
          </mxGeometry>
        </mxCell>
        <mxCell id="mCAhjloM50CXQR4EmnHI-37" value="(1,1)" style="resizable=0;html=1;whiteSpace=wrap;align=right;verticalAlign=bottom;" connectable="0" vertex="1" parent="mCAhjloM50CXQR4EmnHI-36">
          <mxGeometry x="1" relative="1" as="geometry">
            <mxPoint y="20" as="offset" />
          </mxGeometry>
        </mxCell>
        <mxCell id="mCAhjloM50CXQR4EmnHI-38" value="" style="endArrow=none;html=1;rounded=0;exitX=0;exitY=0.5;exitDx=0;exitDy=0;entryX=1;entryY=0.5;entryDx=0;entryDy=0;" edge="1" parent="1">
          <mxGeometry relative="1" as="geometry">
            <mxPoint x="-170" y="614.52" as="sourcePoint" />
            <mxPoint x="-270" y="614.52" as="targetPoint" />
          </mxGeometry>
        </mxCell>
        <mxCell id="mCAhjloM50CXQR4EmnHI-39" value="(1,1)" style="resizable=0;html=1;whiteSpace=wrap;align=right;verticalAlign=bottom;" connectable="0" vertex="1" parent="mCAhjloM50CXQR4EmnHI-38">
          <mxGeometry x="1" relative="1" as="geometry">
            <mxPoint x="30" as="offset" />
          </mxGeometry>
        </mxCell>
        <mxCell id="mCAhjloM50CXQR4EmnHI-40" value="" style="endArrow=none;html=1;rounded=0;" edge="1" parent="1">
          <mxGeometry relative="1" as="geometry">
            <mxPoint x="-90" y="614.52" as="sourcePoint" />
            <mxPoint x="50" y="615" as="targetPoint" />
          </mxGeometry>
        </mxCell>
        <mxCell id="mCAhjloM50CXQR4EmnHI-41" value="(1,M)" style="resizable=0;html=1;whiteSpace=wrap;align=right;verticalAlign=bottom;" connectable="0" vertex="1" parent="mCAhjloM50CXQR4EmnHI-40">
          <mxGeometry x="1" relative="1" as="geometry" />
        </mxCell>
        <mxCell id="mCAhjloM50CXQR4EmnHI-42" value="" style="endArrow=none;html=1;rounded=0;entryX=0.5;entryY=0;entryDx=0;entryDy=0;" edge="1" parent="1" target="mCAhjloM50CXQR4EmnHI-15">
          <mxGeometry relative="1" as="geometry">
            <mxPoint x="-330" y="510" as="sourcePoint" />
            <mxPoint x="-200" y="580" as="targetPoint" />
          </mxGeometry>
        </mxCell>
        <mxCell id="mCAhjloM50CXQR4EmnHI-43" value="(1,M)" style="resizable=0;html=1;whiteSpace=wrap;align=right;verticalAlign=bottom;" connectable="0" vertex="1" parent="mCAhjloM50CXQR4EmnHI-42">
          <mxGeometry x="1" relative="1" as="geometry" />
        </mxCell>
        <mxCell id="mCAhjloM50CXQR4EmnHI-44" value="&lt;font style=&quot;font-size: 11px;&quot;&gt;Cada vehÃ­culo solo puede estar asociado a una pÃ³liza, pero una pÃ³liza puede cubrir varios vehÃ­culos.&lt;/font&gt;" style="shape=note;whiteSpace=wrap;html=1;backgroundOutline=1;darkOpacity=0.05;fillColor=#ffe6cc;strokeColor=#d79b00;" vertex="1" parent="1">
          <mxGeometry x="-580" y="390" width="160" height="120" as="geometry" />
        </mxCell>
        <mxCell id="mCAhjloM50CXQR4EmnHI-45" value="&lt;font style=&quot;font-size: 11px;&quot;&gt;cada accidente solo puede estar vinculado a un Ãºnico vehÃ­culo, pero un vehÃ­culo puede haber tenido varios accidentes (o ninguno).&amp;nbsp;&lt;/font&gt;" style="shape=note;whiteSpace=wrap;html=1;backgroundOutline=1;darkOpacity=0.05;fillColor=#ffe6cc;strokeColor=#d79b00;" vertex="1" parent="1">
          <mxGeometry x="-140" y="145" width="140" height="130" as="geometry" />
        </mxCell>
        <mxCell id="mCAhjloM50CXQR4EmnHI-46" value="" style="endArrow=none;html=1;rounded=0;entryX=0.601;entryY=0.949;entryDx=0;entryDy=0;entryPerimeter=0;" edge="1" parent="1">
          <mxGeometry relative="1" as="geometry">
            <mxPoint x="-320" y="690" as="sourcePoint" />
            <mxPoint x="-318" y="642" as="targetPoint" />
          </mxGeometry>
        </mxCell>
        <mxCell id="mCAhjloM50CXQR4EmnHI-47" value="Cubierta (BOOL)" style="ellipse;whiteSpace=wrap;html=1;align=center;" vertex="1" parent="1">
          <mxGeometry x="-380" y="690" width="100" height="40" as="geometry" />
        </mxCell>
        <mxCell id="mCAhjloM50CXQR4EmnHI-48" value="&lt;h1 style=&quot;margin-top: 0px;&quot;&gt;Restricciones&lt;/h1&gt;&lt;p&gt;&lt;font style=&quot;font-size: 14px;&quot;&gt;Una pÃ³liza solo cubre un accidente si tiene al menos un pago registrado antes de la fecha de vencimiento. Para simplificar la validaciÃ³n, se agrega el atributo cubierta (BOOL), el cual se define como:&lt;/font&gt;&lt;/p&gt;&lt;p&gt;&lt;/p&gt;&lt;ul&gt;&lt;li&gt;&lt;font style=&quot;font-size: 14px;&quot;&gt;cubierta = TRUE si fecha_recibido no es NULL y fecha_recibido â¤ fecha_venc.&lt;/font&gt;&lt;/li&gt;&lt;li&gt;&lt;font style=&quot;font-size: 14px;&quot;&gt;cubierta = FALSE en caso contrario.&lt;/font&gt;&lt;/li&gt;&lt;/ul&gt;&lt;p&gt;&lt;/p&gt;&lt;p&gt;&lt;font style=&quot;font-size: 14px;&quot;&gt;Si un accidente ocurre cuando cubierta = FALSE, la pÃ³liza no cubre los daÃ±os.&lt;/font&gt;&lt;/p&gt;" style="text;html=1;whiteSpace=wrap;overflow=hidden;rounded=0;" vertex="1" parent="1">
          <mxGeometry x="-560" y="780" width="544" height="190" as="geometry" />
        </mxCell>
      </root>
    </mxGraphModel>
  </diagram>
</mxfile>
